<?xml version="1.0" standalone="no"?>
<!DOCTYPE svg PUBLIC "-//W3C//DTD SVG 1.1//EN" "http://www.w3.org/Graphics/SVG/1.1/DTD/svg11.dtd" >
<svg xmlns="http://www.w3.org/2000/svg">
<metadata>
This is a custom SVG webfont generated by Font Squirrel.
Copyright   : Copyright c Volker Busse 2005 
Designer    : Volker Busse
Foundry     : Volker Busse
</metadata>
<defs>
<font id="AmSansRegular" horiz-adv-x="1161" >
<font-face units-per-em="2048" ascent="1638" descent="-410" />
<missing-glyph horiz-adv-x="512" />
<glyph unicode=" "  horiz-adv-x="512" />
<glyph unicode="&#x09;" horiz-adv-x="512" />
<glyph unicode="&#xa0;" horiz-adv-x="512" />
<glyph unicode="!" horiz-adv-x="571" d="M184 82q0 -42 29.5 -72t71.5 -30q43 0 72 29.5t29 72.5q0 42 -29.5 71t-71.5 29t-71.5 -29t-29.5 -71zM210 277h149v1088h-149v-1088z" />
<glyph unicode="&#x22;" horiz-adv-x="675" d="M109 1365l27 -549h111l27 549h-165zM401 1365l27 -549h111l27 549h-165z" />
<glyph unicode="#" horiz-adv-x="1229" d="M100 433h218l-53 -420l128 -18l55 438h290l-52 -420l128 -18l54 438h226v123h-210l35 286h225v123h-212l49 393l-128 18l-51 -411h-288l49 393l-128 18l-51 -411h-233v-123h218l-35 -286h-234v-123zM464 556l35 286h288l-35 -286h-288z" />
<glyph unicode="$" d="M157 331q36 -153 135 -244q103 -97 256 -105v-190h120v199q154 35 244 143q92 110 92 264q0 188 -153 290q-66 44 -183 96v448q97 -22 167 -140l120 78q-104 179 -287 207v186h-120v-185q-142 -22 -229 -111q-92 -94 -92 -234q0 -158 136 -257q72 -52 185 -99v-552 q-190 12 -244 247zM380 1031q0 125 113 184q25 12 55 19v-397q-168 77 -168 194zM668 137v485q183 -88 183 -232q0 -106 -75 -185q-41 -43 -108 -68z" />
<glyph unicode="%" horiz-adv-x="1465" d="M68 1086q0 -112 71 -197q88 -106 231 -106q130 0 218 84q89 86 89 214q0 107 -72 192q-92 107 -233 106q-124 -1 -213 -84q-91 -85 -91 -209zM188 1084q0 76 54 128q54 54 129 54q79 -2 131 -54q53 -53 53 -130q0 -78 -53 -131t-130 -53q-79 0 -132 53q-52 53 -52 133z M295 20l79 -46l795 1374l-80 44zM789 288q0 -110 71 -196q88 -106 230 -106q129 0 217 85q89 86 89 213q0 106 -71 191q-92 108 -233 107q-124 -2 -213 -84q-90 -86 -90 -210zM909 287q0 75 54 128q54 54 129 54q79 -2 131 -54q53 -53 53 -130q0 -78 -53 -131t-130 -53 q-79 0 -132 53q-52 53 -52 133z" />
<glyph unicode="&#x26;" horiz-adv-x="1303" d="M109 354q0 -142 96 -249q117 -131 299 -131q198 0 439 216l148 -190h191l-232 297q104 104 174 202l-110 92q-72 -93 -155 -180l-286 367q97 74 136 112q104 104 104 223q0 122 -83 199q-82 76 -207 76q-129 0 -214 -81q-84 -79 -84 -208q0 -111 135 -292 q-127 -84 -167 -117q-184 -147 -184 -336zM258 361q0 104 97 192q61 55 175 129l20 13l302 -391q-209 -191 -350 -191q-87 0 -154 58q-90 78 -90 190zM470 1107q0 63 43 106q44 44 107 44q64 0 106 -39.5t42 -101.5q0 -71 -62 -133q-20 -21 -121 -94l-61 83q-54 74 -54 135z " />
<glyph unicode="'" horiz-adv-x="382" d="M109 1365l27 -549h111l27 549h-165z" />
<glyph unicode="(" horiz-adv-x="601" d="M171 567q0 -570 171 -936l130 60q-154 392 -154 876q0 483 154 875l-130 60q-171 -366 -171 -935z" />
<glyph unicode=")" horiz-adv-x="601" d="M130 -309l130 -60q171 366 171 935q0 570 -171 936l-130 -60q154 -393 154 -876q0 -482 -154 -875z" />
<glyph unicode="*" d="M242 1198l245 -68l-158 -200l111 -80l141 212l141 -212l110 80l-158 200l246 68l-43 130l-239 -88l11 254h-137l11 -255l-239 89z" />
<glyph unicode="+" d="M98 633h419v-412h126v412h419v126h-419v412h-126v-412h-419v-126z" />
<glyph unicode="," horiz-adv-x="464" d="M48 -272l98 -39l205 462l-133 49z" />
<glyph unicode="-" horiz-adv-x="540" d="M0 371h541v131h-541v-131z" />
<glyph unicode="." horiz-adv-x="465" d="M131 83q0 -43 29 -73t72 -30t72 29.5t29 72.5q0 42 -29.5 71t-71.5 29q-41 0 -71 -29t-30 -70z" />
<glyph unicode="/" horiz-adv-x="994" d="M-29 -314l118 -55l893 1816l-118 55z" />
<glyph unicode="0" d="M92 688q0 -382 210 -588q125 -122 278 -122q239 0 376 245q112 202 112 462q0 374 -206 577q-126 124 -280 123q-73 -2 -139 -28q-130 -53 -216 -182q-135 -199 -135 -487zM241 686q0 236 104 409q92 152 234 151q174 -1 267 -208q72 -160 72 -357q0 -233 -104 -408 q-91 -154 -233 -154q-175 0 -268 208q-72 161 -72 359z" />
<glyph unicode="1" d="M436 1223h106v-1223h153v1365h-259v-142z" />
<glyph unicode="2" d="M103 0h882v142h-572l279 319q154 177 195 237q99 148 99 284q0 175 -125 291q-122 112 -299 112q-117 0 -212 -52q-188 -101 -213 -366h153q11 107 45 161q76 118 227 118q102 0 182 -65q92 -77 92 -197q0 -96 -85 -221q-44 -65 -151 -188z" />
<glyph unicode="3" d="M133 354q8 -115 48 -185q108 -191 357 -191q163 0 283 99q140 116 140 310q0 239 -195 330q175 97 175 302q0 165 -111 268q-106 99 -274 99q-102 0 -185 -40q-157 -75 -195 -318h150q16 91 43 131q60 88 187 88q97 0 158 -55q77 -68 77 -177q0 -64 -29 -117 q-62 -112 -242 -116v-133q291 -7 291 -256q0 -109 -68 -185q-81 -89 -200 -89q-62 0 -121 28q-119 55 -142 207h-147z" />
<glyph unicode="4" d="M39 354h700v-354h152v354h168v138h-168v949zM336 492l403 527v-527h-403z" />
<glyph unicode="5" d="M68 221q148 -243 418 -243q196 0 336 119q165 141 165 369q0 141 -70 259q-127 214 -389 214q-76 0 -151 -25v310l600 -1v142l-740 -1l-1 -653q147 93 264 93q133 0 226 -84q111 -100 111 -256q0 -130 -83 -228q-100 -117 -257 -117q-189 0 -308 188z" />
<glyph unicode="6" d="M109 439q0 -179 126 -312q140 -149 346 -149q128 0 234 61q107 61 171 172q64 109 64 234q0 193 -142 332q-121 118 -295 118q-61 0 -127 -19l315 437l-114 86l-466 -645q-112 -154 -112 -315zM259 440q0 135 92 227q93 93 228 93q138 0 229 -94q92 -94 92 -230 q0 -134 -94 -225q-94 -92 -226 -92q-135 0 -229 92q-92 94 -92 229z" />
<glyph unicode="7" d="M121 48l119 -80l915 1397h-1005v-142h745z" />
<glyph unicode="8" d="M175 376q0 -99 40 -178q53 -105 157 -163q100 -57 220 -57q163 0 278 101q132 115 132 302q0 145 -90 248q-44 49 -108 81q171 99 171 301q0 144 -94 250q-109 124 -288 124q-162 0 -267 -102q-116 -113 -116 -273q0 -198 168 -300q-203 -104 -203 -334zM325 384 q0 108 77 183q78 75 186 75q111 -2 187 -76q77 -75 77 -185q0 -111 -76 -187q-76 -75 -187 -75q-113 0 -189 76q-75 77 -75 189zM355 1012q0 98 70 165q71 69 167 69q100 -2 168 -69q69 -67 69 -168q0 -100 -68 -170q-68 -68 -169 -68q-102 0 -169 69q-68 71 -68 172z" />
<glyph unicode="9" d="M110 920q0 -193 142 -331q121 -118 297 -118q57 0 125 18l-315 -437l114 -85l465 645q114 158 114 314q0 177 -127 311q-139 148 -346 148q-127 0 -232 -60q-108 -61 -173 -172q-64 -109 -64 -233zM260 930q0 133 94 224q95 93 226 92q136 -1 229 -93q93 -91 93 -227 q0 -135 -93 -228q-94 -92 -228 -92q-137 0 -229 93q-92 95 -92 231z" />
<glyph unicode=":" horiz-adv-x="465" d="M131 83q0 -43 29 -73t72 -30t72 29.5t29 72.5q0 42 -29.5 71t-71.5 29q-41 0 -71 -29t-30 -70zM131 771q0 -42 29.5 -72t71.5 -30t71 29.5t29 71.5t-29.5 71t-71.5 29q-41 0 -70.5 -29t-29.5 -70z" />
<glyph unicode=";" horiz-adv-x="464" d="M48 -272l98 -39l206 462l-134 49zM164 771q0 -43 29 -72.5t72 -29.5q42 0 71 29.5t29 71.5t-29 71t-71 29t-71.5 -28.5t-29.5 -70.5z" />
<glyph unicode="&#x3c;" horiz-adv-x="1024" d="M68 624l887 -418v153l-723 331l723 330v153l-887 -416v-133z" />
<glyph unicode="=" d="M98 509h964v119h-964v-119zM98 764h964v119h-964v-119z" />
<glyph unicode="&#x3e;" horiz-adv-x="1024" d="M69 206l887 417v133l-887 417v-153l723 -330l-723 -331v-153z" />
<glyph unicode="?" horiz-adv-x="893" d="M116 1071q0 -33 8 -95h150q-12 56 -12 87q0 79 51 128q52 50 129 50q80 0 133 -54q53 -53 53 -134q0 -93 -60 -138q-39 -30 -82 -43l-88 -28q-248 -80 -248 -277q0 -129 82 -211q83 -83 211 -83q81 0 150 39q141 79 145 274h-146q-4 -64 -21 -99q-36 -76 -127 -76 q-62 0 -105 42q-42 42 -42 104q0 111 139 151q112 32 153 50q188 84 188 295q0 129 -79 218q-96 110 -253 110q-127 0 -219 -75q-110 -90 -110 -235zM345 82q0 -42 29.5 -72t71.5 -30q43 0 72 29.5t29 72.5q0 42 -29.5 71t-71.5 29t-71.5 -29t-29.5 -71z" />
<glyph unicode="@" horiz-adv-x="1474" d="M51 684q0 -200 98 -367q201 -341 644 -341q250 0 490 118l-44 120q-231 -112 -449 -112q-292 0 -458 186q-148 164 -148 396q0 249 164 416q165 166 414 166q231 0 376 -133q152 -138 152 -366q0 -122 -53 -233q-32 -63 -83 -100q-25 -17 -52 -17q-55 0 -55 66q0 37 7 92 l55 465h-134l-11 -99q-92 116 -241 116q-152 0 -259 -101q-123 -116 -123 -300q0 -157 92 -263q96 -109 252 -109q138 0 250 124q39 -120 148 -120q114 0 193 94q137 161 137 397q0 166 -80 303q-85 148 -243 229q-150 78 -327 78q-202 0 -371 -100q-162 -96 -252 -256 q-89 -160 -89 -349zM496 651q0 111 63 189q67 85 176 84q93 0 148 -63q53 -59 53 -153q0 -112 -65 -198q-71 -93 -179 -93q-92 0 -147 73q-49 65 -49 161z" />
<glyph unicode="A" horiz-adv-x="1269" d="M14 0h166l225 536h463l221 -536h167l-613 1430zM467 678l173 397l168 -397h-341z" />
<glyph unicode="B" horiz-adv-x="1085" d="M177 0h340q213 0 328 93q138 113 138 291q0 168 -117 271q-54 48 -141 74q135 99 135 266q0 181 -126 285q-103 85 -309 85h-248v-1365zM330 142v491h154q156 0 233 -42q114 -61 114 -202q0 -247 -327 -247h-174zM330 763v460h118q263 0 263 -230q0 -113 -73 -177 q-61 -53 -194 -53h-114z" />
<glyph unicode="C" horiz-adv-x="1323" d="M102 678q0 -171 80 -323q103 -195 300 -298q155 -82 327 -82q218 0 411 133v190q-192 -180 -412 -180q-201 0 -364 142q-188 162 -188 416q0 135 62 261q71 141 202 224q132 84 287 84q129 0 251 -61q75 -38 162 -120v189q-194 135 -403 135q-198 0 -367 -101 q-161 -98 -255 -260q-93 -163 -93 -349z" />
<glyph unicode="D" horiz-adv-x="1297" d="M177 0h278q308 0 499 158q240 200 240 525q0 184 -80 333q-104 195 -306 287q-138 62 -351 62h-280v-1365zM330 142v1081h133q335 0 487 -230q90 -137 90 -311q0 -259 -186 -415q-149 -125 -391 -125h-133z" />
<glyph unicode="E" horiz-adv-x="987" d="M177 0h707v142h-554v534h539v142h-539v405h554v142h-707v-1365z" />
<glyph unicode="F" horiz-adv-x="887" d="M177 0h153v676h453v142h-453v405h468v142h-621v-1365z" />
<glyph unicode="G" horiz-adv-x="1552" d="M101 679q0 -174 81 -327q92 -174 258 -276q167 -101 362 -101q222 0 398 127q183 131 230 343q19 85 19 260h-889v-142h725q-13 -198 -148 -322q-133 -123 -333 -123q-206 0 -373 153q-176 164 -176 406q0 155 75 286q76 129 205 206q130 76 280 76q189 0 334 -117 q57 -45 129 -139l112 102q-84 101 -157 158q-181 139 -418 139q-178 0 -336 -83q-177 -93 -278 -260q-100 -166 -100 -366z" />
<glyph unicode="H" horiz-adv-x="1359" d="M177 0h153v668h698v-668h153v1365h-153v-555h-698v555h-153v-1365z" />
<glyph unicode="I" horiz-adv-x="508" d="M177 0h153v1365h-153v-1365z" />
<glyph unicode="J" horiz-adv-x="629" d="M-96 -40q124 -102 246 -102q301 0 301 404v1103h-153v-1103q0 -261 -151 -261q-73 0 -158 76z" />
<glyph unicode="K" horiz-adv-x="1165" d="M177 0h153v588l39 38l559 -626h209l-661 729l640 636h-204l-582 -586v586h-153v-1365z" />
<glyph unicode="L" horiz-adv-x="920" d="M177 0h698v142h-545v1223h-153v-1365z" />
<glyph unicode="M" horiz-adv-x="1678" d="M135 0h153v982l582 -982l520 982v-982h153v1422h-72l-609 -1145l-654 1145h-73v-1422z" />
<glyph unicode="N" horiz-adv-x="1571" d="M177 0h153v1052l1064 -1114v1427h-153v-1057l-1064 1114v-1422z" />
<glyph unicode="O" horiz-adv-x="1626" d="M102 690q0 -197 92 -360q93 -162 259 -259q167 -96 353 -96q199 0 368 100q162 95 256 257q93 160 93 349q0 193 -97 354q-96 164 -259 258q-162 95 -345 95h-8q-285 -3 -487 -195q-225 -211 -225 -503zM256 689q0 204 136 361q168 195 418 195h3q227 -1 386 -157 q170 -167 170 -407q0 -145 -69 -273q-74 -135 -206 -212q-134 -78 -286 -78q-235 0 -395 169q-157 166 -157 402z" />
<glyph unicode="P" horiz-adv-x="937" d="M177 0h153v598h133q192 0 307 94q125 101 125 289q0 201 -140 299q-121 85 -330 85h-248v-1365zM330 737v486h113q302 0 302 -240q0 -246 -291 -246h-124z" />
<glyph unicode="Q" horiz-adv-x="1626" d="M102 678q0 -181 86 -338q93 -168 260 -267q169 -98 361 -98q228 0 413 134l115 -123h194l-204 208q196 220 196 480q0 186 -87 344q-94 171 -261 270q-166 100 -362 100q-202 0 -376 -108q-157 -98 -246 -258t-89 -344zM256 678q0 148 65 272q73 138 204 216 q130 79 287 79q239 0 400 -164q157 -163 157 -404q0 -207 -149 -374l-234 246h-200l329 -332q-137 -98 -308 -98q-233 0 -392 162q-159 163 -159 397z" />
<glyph unicode="R" horiz-adv-x="1029" d="M177 0h153v599h39l412 -599h186l-434 611q157 13 250 114t93 257q0 207 -151 309q-110 74 -327 74h-221v-1365zM330 733v490h91q305 0 305 -241q0 -249 -301 -249h-95z" />
<glyph unicode="S" horiz-adv-x="1059" d="M102 328q38 -166 144 -257q110 -96 277 -96q169 0 291 105q143 125 143 315q0 141 -90 237q-71 74 -219 140q-184 81 -237 115q-85 57 -85 147q0 95 67 153q64 58 159 58q96 0 163 -59q34 -29 71 -90l120 79q-122 213 -352 213q-139 0 -246 -79q-136 -100 -136 -273 q0 -212 276 -337q198 -89 242 -118q113 -72 113 -194q0 -115 -80 -192t-194 -77q-144 0 -224 110q-36 50 -55 141z" />
<glyph unicode="T" horiz-adv-x="870" d="M27 1223h330v-1223h153v1223h332v142h-815v-142z" />
<glyph unicode="U" horiz-adv-x="1328" d="M177 487q0 -287 189 -419q134 -93 297 -93q253 0 398 189q89 116 89 323v878h-153v-836q0 -123 -14 -182q-22 -93 -95 -151q-99 -78 -225 -78q-83 0 -162 39q-84 40 -125 109q-46 76 -46 263v836h-153v-878z" />
<glyph unicode="V" horiz-adv-x="1135" d="M14 1365l553 -1446l555 1446h-166l-387 -1041l-388 1041h-167z" />
<glyph unicode="W" horiz-adv-x="1957" d="M14 1365l564 -1437l391 1093l362 -1092l612 1436h-166l-421 -1024l-384 1094l-404 -1092l-387 1022h-167z" />
<glyph unicode="X" horiz-adv-x="1028" d="M27 0h172l317 560l314 -560h171l-396 706l377 659h-175l-289 -514l-283 514h-172l368 -659z" />
<glyph unicode="Y" horiz-adv-x="1081" d="M14 1365l447 -778v-587h153v587l454 778h-177l-353 -609l-348 609h-176z" />
<glyph unicode="Z" horiz-adv-x="1094" d="M48 0h979v142h-726l745 1223h-902v-142h649z" />
<glyph unicode="[" horiz-adv-x="597" d="M164 -360h344v138h-194v1578h194v138h-344v-1854z" />
<glyph unicode="\" horiz-adv-x="994" d="M11 1447l893 -1816l118 55l-893 1816z" />
<glyph unicode="]" horiz-adv-x="597" d="M89 -222v-138h344v1854h-344v-138h194v-1578h-194z" />
<glyph unicode="^" horiz-adv-x="1024" d="M50 745h166l295 502l296 -502h167l-361 625h-202z" />
<glyph unicode="_" horiz-adv-x="1024" d="M0 -132v-141h1024v141h-1024z" />
<glyph unicode="`" horiz-adv-x="1024" d="M233 1275l276 -279l91 51l-216 296z" />
<glyph unicode="a" horiz-adv-x="1017" d="M105 277q0 -151 120 -231q104 -68 261 -68q156 0 268 94v-80h139v554q0 148 -78 222q-114 108 -302 108q-16 0 -50 -2l-166 -13l10 -133q103 18 158 18q62 0 134 -14q84 -16 99 -33q56 -61 56 -137v-72q-71 94 -267 94h-8q-161 -2 -260 -72q-114 -81 -114 -235zM246 275 v10q0 47 18 74q7 10 45 47q53 50 176 50h14q133 -3 209 -69q53 -45 53 -110t-89 -121q-80 -50 -171 -50h-6q-149 0 -192 46q-55 58 -57 123z" />
<glyph unicode="b" horiz-adv-x="1073" d="M139 0h146v118q117 -143 294 -143q161 0 276 111q133 127 133 341q0 183 -102 303q-119 140 -304 140q-176 0 -297 -141v765h-146v-1494zM275 425q0 136 67 212q86 101 214 101h5q107 -2 182 -72q96 -90 96 -246q0 -122 -68 -210q-79 -103 -213 -103q-132 0 -210 95 q-73 88 -73 223z" />
<glyph unicode="c" horiz-adv-x="892" d="M85 420q0 -162 103 -286q130 -159 349 -159q133 0 270 89v193q-128 -149 -275 -149q-132 0 -216 92q-82 88 -82 222q0 132 84 224q86 92 216 92q140 0 268 -141v192q-124 81 -264 81q-192 0 -316 -123q-137 -135 -137 -327z" />
<glyph unicode="d" horiz-adv-x="1073" d="M85 427q0 -185 101 -307q120 -145 308 -145q177 0 294 143v-118h146v1494h-146v-765q-122 141 -297 141q-156 0 -270 -105q-136 -124 -136 -338zM234 431q0 127 75 216q79 91 202 91h3q131 -2 210 -92q74 -88 74 -220q0 -129 -65 -214q-83 -105 -219 -105q-133 0 -210 98 q-70 89 -70 226z" />
<glyph unicode="e" horiz-adv-x="986" d="M85 420q0 -178 95 -297q120 -148 324 -148q166 0 285 105q53 47 105 137l-123 69q-55 -91 -106 -130q-64 -49 -156 -49q-75 0 -136 37q-126 75 -134 251h663v26q0 197 -103 318q-110 131 -302 131t-305 -131q-107 -124 -107 -319zM248 518q17 96 86 158q70 62 165 62 q125 0 200 -101q36 -48 49 -119h-500z" />
<glyph unicode="f" horiz-adv-x="490" d="M-51 716v135h191v360q0 148 50 215q69 91 203 91q91 0 183 -81l-90 -104q-34 35 -84 40h-12q-66 0 -90 -62q-14 -39 -14 -132v-327h193v-135h-193v-716h-146v716h-191z" />
<glyph unicode="g" horiz-adv-x="1075" d="M85 423q0 188 110 316q115 133 302 133q191 0 293 -121v100h146v-832q0 -169 -92 -294q-109 -149 -362 -149h-7l-149 1l10 142l141 -11q10 -1 29 -1q101 0 178 56q106 76 106 231v104q-106 -121 -300 -121q-178 0 -299 138q-106 121 -106 308zM234 425q0 -131 72 -220 q76 -96 205 -96q134 0 220 104q66 81 66 210q0 133 -74 222q-77 93 -210 95h-5q-133 0 -215 -114q-59 -83 -59 -201z" />
<glyph unicode="h" horiz-adv-x="961" d="M139 0h146v425q0 143 34 212q50 101 181 101q108 0 148 -70q28 -47 28 -151v-517h146v527q0 153 -50 227q-80 116 -243 116q-142 0 -244 -119v743h-146v-1494z" />
<glyph unicode="i" horiz-adv-x="425" d="M108 1172q0 -44 30 -75t74 -31t74.5 30.5t30.5 74.5q0 43 -30.5 73.5t-73.5 30.5t-74 -30t-31 -73zM139 0h146v851h-146v-851z" />
<glyph unicode="j" horiz-adv-x="425" d="M108 1172q0 -44 30 -75t74 -31t74.5 30.5t30.5 74.5q0 43 -30.5 73.5t-73.5 30.5t-74 -30t-31 -73zM139 -479h146v1330h-146v-1330z" />
<glyph unicode="k" horiz-adv-x="862" d="M139 0h146v350l36 37l344 -387h191l-433 489l364 362h-194l-308 -314v957h-146v-1494z" />
<glyph unicode="l" horiz-adv-x="425" d="M139 0h146v1494h-146v-1494z" />
<glyph unicode="m" horiz-adv-x="1393" d="M139 0h146v463q0 276 184 276q157 0 157 -234v-505h146v472q0 267 183 267q152 0 152 -223v-516h146v540q0 143 -47 217q-73 115 -229 115q-168 0 -249 -139q-75 139 -233 139q-126 0 -210 -112v91h-146v-851z" />
<glyph unicode="n" horiz-adv-x="960" d="M139 0h146v425q0 142 35 214q49 100 176 100q106 0 150 -71q28 -46 28 -165v-503h146v528q0 152 -48 226q-76 117 -243 117q-145 0 -244 -123v103h-146v-851z" />
<glyph unicode="o" horiz-adv-x="1068" d="M85 430q0 -120 52 -218q59 -110 163 -174q106 -63 231 -63q178 0 303 112q149 132 149 336q0 176 -115 301q-132 146 -329 146h-5q-184 -2 -309 -121q-140 -134 -140 -319zM234 427q0 116 67 201q86 110 229 110h3q135 -1 218 -90t83 -226q0 -122 -66 -205 q-89 -110 -238 -110q-135 0 -217 94q-79 88 -79 226z" />
<glyph unicode="p" horiz-adv-x="1073" d="M139 -479h146v598q121 -144 297 -144q156 0 271 106q135 125 135 339q0 182 -101 306q-118 145 -309 145q-172 0 -294 -140v120h-145v-1330zM275 420q0 128 67 213q83 106 214 106h5q131 -1 208 -99q70 -89 70 -225q0 -128 -75 -215q-78 -93 -204 -93q-131 0 -211 92 q-74 88 -74 221z" />
<glyph unicode="q" horiz-adv-x="1073" d="M85 420q0 -186 102 -305q120 -140 304 -140q175 0 297 144v-598h146v1330h-146v-120q-117 140 -294 140q-162 0 -277 -111q-132 -126 -132 -340zM234 426q0 130 75 219q79 94 204 94h3q133 -2 209 -96q73 -88 73 -223q0 -134 -66 -211q-87 -102 -220 -102q-106 0 -182 72 q-96 89 -96 247z" />
<glyph unicode="r" horiz-adv-x="650" d="M139 0h146v388q0 202 23 245q54 100 134 100q-30 0 -67 -21l69 20q67 0 100 -57l133 42q-58 145 -200 145q-79 0 -98 -12q-67 -39 -94 -71v72h-146v-851z" />
<glyph unicode="s" horiz-adv-x="717" d="M71 192q84 -217 297 -217q124 0 207 77q84 78 84 201q0 119 -93 187q-45 32 -162 82q-137 57 -137 121q0 41 29.5 68t72.5 27q73 0 118 -85l121 63q-79 154 -233 154q-106 0 -177 -67q-71 -68 -71 -171q0 -106 75 -160q49 -36 170 -88q70 -30 95 -51q43 -34 43 -92 q0 -60 -39.5 -97t-100.5 -37q-104 0 -171 139z" />
<glyph unicode="t" horiz-adv-x="599" d="M1 716h229v-716h146v716h220v135h-220v305h-146v-305h-229v-135z" />
<glyph unicode="u" horiz-adv-x="953" d="M135 325q0 -153 48 -226q77 -117 243 -117q88 0 124 17q87 43 120 76v-73h146v851h-146v-425q0 -203 -40 -240q-77 -74 -171 -74q-106 0 -150 71q-28 46 -28 165v503h-146v-528z" />
<glyph unicode="v" horiz-adv-x="867" d="M16 851l417 -906l417 906h-163l-253 -572l-254 572h-164z" />
<glyph unicode="w" horiz-adv-x="1397" d="M16 851l417 -910l264 634l262 -634l422 910h-164l-255 -575l-265 641l-265 -641l-251 575h-165z" />
<glyph unicode="x" horiz-adv-x="931" d="M16 0h182l271 347l269 -347h176l-354 454l312 397h-181l-222 -290l-222 290h-178l310 -397z" />
<glyph unicode="y" horiz-adv-x="942" d="M16 851l391 -770l-275 -560h165l628 1330h-165l-275 -609l-300 609h-169z" />
<glyph unicode="z" horiz-adv-x="942" d="M16 0h880v135h-586l612 716h-792v-135h501z" />
<glyph unicode="{" horiz-adv-x="597" d="M104 510q117 -32 117 -192v-377q0 -150 50 -221q59 -81 205 -81q31 0 57 1v128q-107 0 -137 39q-26 34 -26 146v370q0 175 -124 242q75 41 101 98q23 51 23 140v383q0 131 45 158q34 20 118 20v128q-131 5 -194 -24q-118 -52 -118 -256v-400q0 -151 -117 -181v-121z" />
<glyph unicode="|" horiz-adv-x="1024" d="M435 -341h154v1706h-154v-1706z" />
<glyph unicode="}" horiz-adv-x="597" d="M63 -231v-128q46 -2 54 -2q140 0 201 73q56 68 56 209v400q0 153 118 181v121q-118 31 -118 192v377q0 150 -50 221q-58 81 -205 81q-30 0 -56 -1v-128q107 0 137 -39q25 -32 25 -146v-370q0 -175 124 -242q-75 -41 -101 -98q-23 -51 -23 -140v-383q0 -103 -21 -135 q-29 -44 -122 -44q-10 0 -19 1z" />
<glyph unicode="~" horiz-adv-x="1365" d="M190 1249l89 -57q79 147 181 147q52 0 133 -36q222 -98 286 -98q103 0 183 70q59 51 113 161l-91 53q-84 -138 -186 -138q-58 0 -198 64q-153 70 -229 70q-125 0 -206 -107q-35 -45 -75 -129z" />
<glyph unicode="&#xa3;" d="M108 53l119 -79q72 108 163 108q50 0 191 -50q151 -54 225 -54q174 0 282 211l-124 74q-79 -136 -164 -136q-39 0 -153 40l-119 41q59 107 59 198q0 32 -12 79h217v116h-257q-15 33 -51 98q-110 203 -110 294q0 108 71 176q73 68 180 68q226 0 244 -298l150 40 q-9 219 -154 328q-103 77 -241 77q-194 0 -313 -137q-91 -103 -91 -244q0 -113 90 -286l58 -116h-179v-116h229q13 -48 13 -85q0 -83 -58 -172q-155 -4 -265 -175z" />
<glyph unicode="&#xa4;" horiz-adv-x="1365" d="M108 1221l195 -195q-102 -148 -102 -288q0 -143 105 -293l-193 -193l84 -84l193 192q162 -102 296 -102q144 0 293 105l195 -195l84 84l-196 196q103 154 103 288q0 138 -103 292l193 193l-85 85l-194 -193q-152 105 -292 105q-139 0 -296 -106l-195 194zM340 737 q0 147 100 247q101 101 248 99q143 -2 241 -103t98 -243q0 -145 -100 -245q-99 -99 -244 -99q-144 0 -244 100q-99 101 -99 244z" />
<glyph unicode="&#xa6;" horiz-adv-x="1024" d="M435 314v-655h154v655h-154zM435 683h154v682h-154v-682z" />
<glyph unicode="&#xa7;" d="M207 570q0 -153 101 -245q57 -51 192 -104q142 -55 183 -81q88 -55 88 -169q0 -96 -54.5 -150.5t-150.5 -54.5q-115 0 -169 81q-32 49 -38 158h-148q6 -148 49 -224q88 -157 303 -157q161 0 259 92q99 92 99 251q0 139 -76 215q-29 30 -96 69q205 120 205 321 q0 166 -108 257q-66 55 -209 105q-132 45 -179 79q-71 53 -71 144q0 96 58 153.5t154 57.5q197 0 205 -246h144q-8 146 -57 233q-89 153 -293 153q-152 0 -254 -93q-105 -96 -105 -247q0 -129 79 -209q26 -28 94 -67q-205 -93 -205 -322zM359 576q0 90 65 155t156 65 q92 -1 157 -66q64 -64 64 -157q0 -95 -64 -159q-63 -64 -157 -64q-95 0 -158 65q-63 66 -63 161z" />
<glyph unicode="&#xa8;" horiz-adv-x="1024" d="M232 1148q0 -44 29 -74t73 -30q43 0 73 30t30 73t-30 72.5t-73 29.5q-42 0 -72 -29.5t-30 -71.5zM587 1148q0 -43 30 -73.5t73 -30.5t72.5 30t29.5 73q0 42 -30 72t-72 30t-72.5 -29.5t-30.5 -71.5z" />
<glyph unicode="&#xa9;" horiz-adv-x="1516" d="M52 688q0 -193 94 -357q95 -166 258 -260t354 -94q189 0 352 94q164 94 259 258t95 354q0 187 -95 351t-252 258q-161 96 -348 96q-283 0 -483 -182q-234 -213 -234 -518zM167 687q0 223 152 390q182 201 448 196q224 -5 386 -152q196 -178 196 -438q0 -160 -79 -297 q-80 -136 -216 -216q-136 -78 -296 -78q-225 0 -395 152q-196 175 -196 443zM362 675q0 -176 125 -299q125 -122 302 -122q143 0 283 111v171q-66 -76 -87 -94q-89 -75 -199 -75q-124 0 -215 89q-90 90 -90 215q0 113 76 201q94 109 228 109q116 0 200 -78q18 -15 87 -98 v175q-139 116 -287 116q-161 0 -284 -111q-139 -126 -139 -310z" />
<glyph unicode="&#xaa;" horiz-adv-x="1017" d="M105 277q0 -151 120 -231q104 -68 261 -68q156 0 268 94v-80h139v554q0 148 -78 222q-114 108 -302 108q-16 0 -50 -2l-166 -13l10 -133q103 18 158 18q62 0 134 -14q84 -16 99 -33q56 -61 56 -137v-72q-71 94 -267 94h-8q-161 -2 -260 -72q-114 -81 -114 -235zM246 275 v10q0 47 18 74q7 10 45 47q53 50 176 50h14q133 -3 209 -69q53 -45 53 -110t-89 -121q-80 -50 -171 -50h-6q-149 0 -192 46q-55 58 -57 123z" />
<glyph unicode="&#xab;" horiz-adv-x="883" d="M75 437l306 -376l95 76l-244 300l244 309l-96 75zM380 437l305 -376l95 76l-243 300l243 309l-95 75z" />
<glyph unicode="&#xac;" horiz-adv-x="1024" d="M68 403h733v-403h154v546h-887v-143z" />
<glyph unicode="&#xad;" horiz-adv-x="371" d="M0 371h371v131h-371v-131z" />
<glyph unicode="&#x2212;" horiz-adv-x="371" d="M0 371h371v131h-371v-131z" />
<glyph unicode="&#xae;" horiz-adv-x="1516" d="M52 688q0 -193 94 -357q95 -166 258 -260t354 -94q189 0 352 94q164 94 259 258t95 354q0 187 -95 351t-252 258q-161 96 -348 96q-283 0 -483 -182q-234 -213 -234 -518zM167 687q0 223 152 390q182 201 448 196q224 -5 386 -152q196 -178 196 -438q0 -160 -79 -297 q-80 -136 -216 -216q-136 -78 -296 -78q-225 0 -395 152q-196 175 -196 443zM579 266h118v309l211 -309h143l-250 361q188 32 188 225q0 233 -269 233h-141v-819zM696 734v238h28q146 0 146 -119t-136 -119h-38z" />
<glyph unicode="&#xaf;" horiz-adv-x="1094" d="M48 0h979v142h-726l745 1223h-902v-142h649zM472 1633q0 -46 32 -78.5t78 -32.5t77.5 32t31.5 78q0 48 -31.5 79t-78.5 30q-46 0 -77.5 -31.5t-31.5 -76.5z" />
<glyph unicode="&#x2c9;" horiz-adv-x="1094" d="M48 0h979v142h-726l745 1223h-902v-142h649zM472 1633q0 -46 32 -78.5t78 -32.5t77.5 32t31.5 78q0 48 -31.5 79t-78.5 30q-46 0 -77.5 -31.5t-31.5 -76.5z" />
<glyph unicode="&#xb0;" d="M307 1112q0 -115 79 -194q80 -78 194 -78q116 0 194 78q79 79 79 195q0 113 -78 192q-78 80 -191 80q-118 0 -197 -78q-80 -78 -80 -195zM416 1113q0 69 48 116q50 48 118 47q68 -2 114 -49q48 -47 48 -114q0 -68 -48 -116t-116 -48t-116 48t-48 116z" />
<glyph unicode="&#xb1;" d="M99 0h964v126h-964v-126zM99 633h419v-398h126v398h419v126h-419v412h-126v-412h-419v-126z" />
<glyph unicode="&#xb2;" d="M103 0h882v142h-572l279 319q154 177 195 237q99 148 99 284q0 175 -125 291q-122 112 -299 112q-117 0 -212 -52q-188 -101 -213 -366h153q11 107 45 161q76 118 227 118q102 0 182 -65q92 -77 92 -197q0 -96 -85 -221q-44 -65 -151 -188z" />
<glyph unicode="&#xb3;" d="M133 354q8 -115 48 -185q108 -191 357 -191q163 0 283 99q140 116 140 310q0 239 -195 330q175 97 175 302q0 165 -111 268q-106 99 -274 99q-102 0 -185 -40q-157 -75 -195 -318h150q16 91 43 131q60 88 187 88q97 0 158 -55q77 -68 77 -177q0 -64 -29 -117 q-62 -112 -242 -116v-133q291 -7 291 -256q0 -109 -68 -185q-81 -89 -200 -89q-62 0 -121 28q-119 55 -142 207h-147z" />
<glyph unicode="&#xb4;" horiz-adv-x="1024" d="M424 1047l91 -51l276 279l-151 68z" />
<glyph unicode="&#xb5;" horiz-adv-x="953" d="M140 -479h146l-7 518q89 -64 203 -64q157 0 255 107q77 86 77 256v513h-146v-496q0 -110 -26 -160q-46 -88 -165 -88q-64 0 -113 32q-78 53 -78 193v519h-146v-1330z" />
<glyph unicode="&#x3bc;" horiz-adv-x="953" d="M140 -479h146l-7 518q89 -64 203 -64q157 0 255 107q77 86 77 256v513h-146v-496q0 -110 -26 -160q-46 -88 -165 -88q-64 0 -113 32q-78 53 -78 193v519h-146v-1330z" />
<glyph unicode="&#xb6;" d="M83 1012q0 -91 38 -170q84 -171 283 -171q18 0 30 1v-874h130v1448h214v-1448h130v1448h90l68 119h-586q-158 0 -247 -54q-150 -91 -150 -299z" />
<glyph unicode="&#xb7;" horiz-adv-x="461" d="M130 439q0 -43 29 -73t72 -30q42 0 71.5 29.5t29.5 71.5q0 43 -29 72.5t-72 28.5q-42 -1 -71.5 -29t-29.5 -70z" />
<glyph unicode="&#x2219;" horiz-adv-x="461" d="M130 439q0 -43 29 -73t72 -30q42 0 71.5 29.5t29.5 71.5q0 43 -29 72.5t-72 28.5q-42 -1 -71.5 -29t-29.5 -70z" />
<glyph unicode="&#xb8;" horiz-adv-x="1024" d="M372 -363l101 -51l206 263l-135 55z" />
<glyph unicode="&#xb9;" d="M436 1223h106v-1223h153v1365h-259v-142z" />
<glyph unicode="&#xba;" horiz-adv-x="1068" d="M85 430q0 -120 52 -218q59 -110 163 -174q106 -63 231 -63q178 0 303 112q149 132 149 336q0 176 -115 301q-132 146 -329 146h-5q-184 -2 -309 -121q-140 -134 -140 -319zM234 427q0 116 67 201q86 110 229 110h3q135 -1 218 -90t83 -226q0 -122 -66 -205 q-89 -110 -238 -110q-135 0 -217 94q-79 88 -79 226z" />
<glyph unicode="&#xbb;" horiz-adv-x="883" d="M102 137l95 -76l306 376l-306 384l-95 -75l244 -309zM407 137l95 -76l305 376l-305 384l-95 -75l243 -309z" />
<glyph unicode="&#xbf;" horiz-adv-x="942" d="M16 0h880v135h-586l612 716h-792v-135h501zM406 1147q0 -44 30.5 -75t74.5 -31t74 30.5t30 74.5t-30.5 74t-74.5 30q-43 0 -73.5 -30t-30.5 -73z" />
<glyph unicode="&#xc0;" horiz-adv-x="1269" d="M367 1831l276 -279l91 51l-216 296zM14 0h166l225 536h463l221 -536h167l-613 1430zM467 678l173 397l168 -397h-341z" />
<glyph unicode="&#xc1;" horiz-adv-x="1269" d="M14 0h166l225 536h463l221 -536h167l-613 1430zM467 678l173 397l168 -397h-341zM530 1541l88 -65l294 239l-137 91z" />
<glyph unicode="&#xc2;" horiz-adv-x="1269" d="M14 0h166l225 536h463l221 -536h167l-613 1430zM362 1561l106 -84l179 155l180 -155l108 83l-288 244zM467 678l173 397l168 -397h-341z" />
<glyph unicode="&#xc3;" horiz-adv-x="1269" d="M150 1609l89 -57q79 147 181 147q52 0 133 -36q222 -98 286 -98q103 0 183 70q59 51 113 161l-91 53q-84 -138 -186 -138q-58 0 -198 64q-153 70 -229 70q-125 0 -206 -107q-35 -45 -75 -129zM14 0h166l225 536h463l221 -536h167l-613 1430zM467 678l173 397l168 -397 h-341z" />
<glyph unicode="&#xc4;" horiz-adv-x="1269" d="M14 0h166l225 536h463l221 -536h167l-613 1430zM346 1635q0 -44 30.5 -75t74.5 -31t74 30.5t30 74.5t-30.5 74t-74.5 30q-43 0 -73.5 -30t-30.5 -73zM467 678l173 397l168 -397h-341zM735 1635q0 -44 30.5 -75t74.5 -31q43 0 73.5 31t30.5 74q0 44 -30.5 74t-74.5 30 q-43 0 -73.5 -30t-30.5 -73z" />
<glyph unicode="&#xc5;" horiz-adv-x="1269" d="M370 1684q0 -115 79 -194q80 -78 194 -78q116 0 194 78q79 79 79 195q0 113 -78 192q-78 80 -191 80q-118 0 -197 -78q-80 -78 -80 -195zM479 1685q0 69 48 116q50 48 118 47q68 -2 114 -49q48 -47 48 -114q0 -68 -48 -116t-116 -48t-116 48t-48 116zM14 0h166l225 536 h463l221 -536h167l-613 1430zM467 678l173 397l168 -397h-341z" />
<glyph unicode="&#xc7;" horiz-adv-x="1323" d="M102 678q0 -171 80 -323q103 -195 300 -298q155 -82 327 -82q218 0 411 133v190q-192 -180 -412 -180q-201 0 -364 142q-188 162 -188 416q0 135 62 261q71 141 202 224q132 84 287 84q129 0 251 -61q75 -38 162 -120v189q-194 135 -403 135q-198 0 -367 -101 q-161 -98 -255 -260q-93 -163 -93 -349zM557 -374l103 -53l226 265l-146 66z" />
<glyph unicode="&#xc8;" horiz-adv-x="987" d="M255 1789l276 -279l91 51l-216 296zM177 0h707v142h-554v534h539v142h-539v405h554v142h-707v-1365z" />
<glyph unicode="&#xc9;" horiz-adv-x="987" d="M177 0h707v142h-554v534h539v142h-539v405h554v142h-707v-1365zM408 1541l88 -65l294 239l-137 91z" />
<glyph unicode="&#xca;" horiz-adv-x="987" d="M68 1510h166l295 502l296 -502h167l-361 625h-202zM177 0h707v142h-554v534h539v142h-539v405h554v142h-707v-1365z" />
<glyph unicode="&#xcb;" horiz-adv-x="987" d="M177 0h707v142h-554v534h539v142h-539v405h554v142h-707v-1365zM232 1635q0 -44 30.5 -75t74.5 -31t74 30.5t30 74.5t-30.5 74t-74.5 30q-43 0 -73.5 -30t-30.5 -73zM621 1635q0 -44 30.5 -75t74.5 -31q43 0 73.5 31t30.5 74q0 44 -30.5 74t-74.5 30q-43 0 -73.5 -30 t-30.5 -73z" />
<glyph unicode="&#xcc;" horiz-adv-x="508" d="M-23 1789l276 -279l91 51l-216 296zM177 0h153v1365h-153v-1365z" />
<glyph unicode="&#xcd;" horiz-adv-x="508" d="M155 1534l88 -58l246 239l-137 91zM177 0h153v1365h-153v-1365z" />
<glyph unicode="&#xce;" horiz-adv-x="508" d="M2 1561l99 -84l152 155l152 -155l102 83l-254 244zM178 0h153v1365h-153v-1365z" />
<glyph unicode="&#xcf;" horiz-adv-x="508" d="M-26 1614q0 -44 29 -74t73 -30q43 0 73 30t30 73t-30 72.5t-73 29.5q-42 0 -72 -29.5t-30 -71.5zM329 1614q0 -43 30 -73.5t73 -30.5t72.5 30t29.5 73q0 42 -30 72t-72 30t-72.5 -29.5t-30.5 -71.5zM177 0h153v1365h-153v-1365z" />
<glyph unicode="&#xd1;" horiz-adv-x="1571" d="M-316 1601l89 -57q79 147 181 147q52 0 133 -36q222 -98 286 -98q103 0 183 70q59 51 113 161l-91 53q-84 -138 -186 -138q-58 0 -198 64q-153 70 -229 70q-125 0 -206 -107q-35 -45 -75 -129zM177 0h153v1052l1064 -1114v1427h-153v-1057l-1064 1114v-1422z" />
<glyph unicode="&#xd2;" horiz-adv-x="1626" d="M542 1789l276 -279l91 51l-216 296zM102 690q0 -197 92 -360q93 -162 259 -259q167 -96 353 -96q199 0 368 100q162 95 256 257q93 160 93 349q0 193 -97 354q-96 164 -259 258q-162 95 -345 95h-8q-285 -3 -487 -195q-225 -211 -225 -503zM256 689q0 204 136 361 q168 195 418 195h3q227 -1 386 -157q170 -167 170 -407q0 -145 -69 -273q-74 -135 -206 -212q-134 -78 -286 -78q-235 0 -395 169q-157 166 -157 402z" />
<glyph unicode="&#xd3;" horiz-adv-x="1626" d="M102 690q0 -197 92 -360q93 -162 259 -259q167 -96 353 -96q199 0 368 100q162 95 256 257q93 160 93 349q0 193 -97 354q-96 164 -259 258q-165 97 -353 95q-285 -3 -487 -195q-225 -211 -225 -503zM256 689q0 204 136 361q169 196 421 195q227 -1 386 -157 q170 -167 170 -407q0 -145 -69 -273q-74 -135 -206 -212q-134 -78 -286 -78q-235 0 -395 169q-157 166 -157 402zM707 1541l88 -65l294 239l-137 91z" />
<glyph unicode="&#xd4;" horiz-adv-x="1626" d="M102 690q0 -197 92 -360q93 -162 259 -259q167 -96 353 -96q199 0 368 100q162 95 256 257q93 160 93 349q0 193 -97 354q-96 164 -259 258q-165 97 -353 95q-285 -3 -487 -195q-225 -211 -225 -503zM256 689q0 204 136 361q169 196 421 195q227 -1 386 -157 q170 -167 170 -407q0 -145 -69 -273q-74 -135 -206 -212q-134 -78 -286 -78q-235 0 -395 169q-157 166 -157 402zM526 1561l106 -84l179 155l180 -155l108 83l-288 244z" />
<glyph unicode="&#xd5;" horiz-adv-x="1626" d="M102 690q0 -197 92 -360q93 -162 259 -259q167 -96 353 -96q199 0 368 100q162 95 256 257q93 160 93 349q0 193 -97 354q-96 164 -259 258q-165 97 -353 95q-285 -3 -487 -195q-225 -211 -225 -503zM256 689q0 204 136 361q169 196 421 195q227 -1 386 -157 q170 -167 170 -407q0 -145 -69 -273q-74 -135 -206 -212q-134 -78 -286 -78q-235 0 -395 169q-157 166 -157 402zM594 1541l73 -57l299 248l-130 74zM935 1541l73 -57l300 248l-131 74z" />
<glyph unicode="&#xd6;" horiz-adv-x="1626" d="M102 690q0 -197 92 -360q93 -162 259 -259q167 -96 353 -96q199 0 368 100q162 95 256 257q93 160 93 349q0 193 -97 354q-96 164 -259 258q-165 97 -353 95q-285 -3 -487 -195q-225 -211 -225 -503zM256 689q0 204 136 361q169 196 421 195q227 -1 386 -157 q170 -167 170 -407q0 -145 -69 -273q-74 -135 -206 -212q-134 -78 -286 -78q-235 0 -395 169q-157 166 -157 402zM514 1635q0 -44 30.5 -75t74.5 -31q43 0 73.5 31t30.5 74q0 44 -30.5 74t-74.5 30q-43 0 -73.5 -30t-30.5 -73zM903 1635q0 -44 30.5 -75t74.5 -31 q43 0 73.5 31t30.5 74q0 44 -30.5 74t-74.5 30q-43 0 -73.5 -30t-30.5 -73z" />
<glyph unicode="&#xd7;" d="M177 379l86 -86l317 317l317 -317l86 86l-317 317l317 317l-86 86l-317 -317l-317 317l-86 -86l317 -317z" />
<glyph unicode="&#xd9;" horiz-adv-x="1328" d="M387 1789l276 -279l91 51l-216 296zM177 487q0 -287 189 -419q134 -93 297 -93q253 0 398 189q89 116 89 323v878h-153v-836q0 -123 -14 -182q-22 -93 -95 -151q-99 -78 -225 -78q-83 0 -162 39q-84 40 -125 109q-46 76 -46 263v836h-153v-878z" />
<glyph unicode="&#xda;" horiz-adv-x="1328" d="M177 487q0 -287 189 -419q134 -93 297 -93q253 0 398 189q89 116 89 323v878h-153v-836q0 -123 -14 -182q-22 -93 -95 -151q-99 -78 -225 -78q-83 0 -162 39q-84 40 -125 109q-46 76 -46 263v836h-153v-878zM551 1541l88 -65l294 239l-137 91z" />
<glyph unicode="&#xdb;" horiz-adv-x="1328" d="M177 487q0 -287 189 -419q134 -93 297 -93q253 0 398 189q89 116 89 323v878h-153v-836q0 -123 -14 -182q-22 -93 -95 -151q-99 -78 -225 -78q-83 0 -162 39q-84 40 -125 109q-46 76 -46 263v836h-153v-878zM432 1541l73 -57l299 248l-130 74zM773 1541l73 -57l300 248 l-131 74z" />
<glyph unicode="&#xdc;" horiz-adv-x="1328" d="M177 487q0 -287 189 -419q134 -93 297 -93q253 0 398 189q89 116 89 323v878h-153v-836q0 -123 -14 -182q-22 -93 -95 -151q-99 -78 -225 -78q-83 0 -162 39q-84 40 -125 109q-46 76 -46 263v836h-153v-878zM365 1635q0 -44 30.5 -75t74.5 -31t74 30.5t30 74.5t-30.5 74 t-74.5 30q-43 0 -73.5 -30t-30.5 -73zM754 1635q0 -44 30.5 -75t74.5 -31q43 0 73.5 31t30.5 74q0 44 -30.5 74t-74.5 30q-43 0 -73.5 -30t-30.5 -73z" />
<glyph unicode="&#xdd;" horiz-adv-x="1081" d="M14 1365l447 -778v-587h153v587l454 778h-177l-353 -609l-348 609h-176zM429 1541l88 -65l294 239l-137 91z" />
<glyph unicode="&#xde;" horiz-adv-x="870" d="M27 1223h330v-1223h153v1223h332v142h-815v-142zM257 -436l104 -34l161 312l-155 49z" />
<glyph unicode="&#xdf;" horiz-adv-x="1073" d="M60 716h79v-716h146v1066q0 157 26 217q45 102 183 102q90 0 149 -57q58 -55 58 -146q0 -55 -22 -100q-53 -111 -209 -118v-132q370 -46 370 -352q0 -180 -147 -287q-87 -63 -223 -74v-143q274 15 424 214q95 127 95 285q0 99 -39 192q-75 179 -253 246q153 81 153 263 q0 135 -85 229q-100 112 -267 112q-88 0 -160 -31q-199 -84 -199 -353v-282h-79v-135z" />
<glyph unicode="&#xe0;" horiz-adv-x="1017" d="M237 1277l276 -279l91 51l-216 296zM105 277q0 -151 120 -231q104 -68 261 -68q156 0 268 94v-80h139v554q0 148 -78 222q-114 108 -302 108q-16 0 -50 -2l-166 -13l10 -133q103 18 158 18q62 0 134 -14q84 -16 99 -33q56 -61 56 -137v-72q-71 94 -267 94h-8 q-161 -2 -260 -72q-114 -81 -114 -235zM246 275v10q0 47 18 74q7 10 45 47q53 50 176 50h14q133 -3 209 -69q53 -45 53 -110t-89 -121q-80 -50 -171 -50h-6q-149 0 -192 46q-55 58 -57 123z" />
<glyph unicode="&#xe1;" horiz-adv-x="1073" d="M105 277q0 -151 120 -231q104 -68 261 -68q156 0 268 94v-80h139v554q0 148 -78 222q-114 108 -302 108q-16 0 -50 -2l-166 -13l10 -133q103 18 158 18q62 0 134 -14q84 -16 99 -33q56 -61 56 -137v-72q-72 96 -275 94q-161 -2 -260 -72q-114 -81 -114 -235zM246 275 q-2 54 18 84q7 10 45 47q56 53 190 50q133 -3 209 -69q53 -45 53 -110t-89 -121q-80 -50 -171 -50q-154 -1 -198 46q-55 58 -57 123zM435 1047l91 -51l276 279l-151 68z" />
<glyph unicode="&#xe2;" horiz-adv-x="1073" d="M105 277q0 -151 120 -231q104 -68 261 -68q156 0 268 94v-80h139v554q0 148 -78 222q-114 108 -302 108q-16 0 -50 -2l-166 -13l10 -133q103 18 158 18q62 0 134 -14q84 -16 99 -33q56 -61 56 -137v-72q-72 96 -275 94q-161 -2 -260 -72q-114 -81 -114 -235zM246 275 q-2 54 18 84q7 10 45 47q56 53 190 50q133 -3 209 -69q53 -45 53 -110t-89 -121q-80 -50 -171 -50q-154 -1 -198 46q-55 58 -57 123zM260 1077l103 -81l179 170l180 -169l105 80l-285 266z" />
<glyph unicode="&#xe3;" horiz-adv-x="1017" d="M20 1055l89 -57q79 147 181 147q52 0 133 -36q222 -98 286 -98q103 0 183 70q59 51 113 161l-91 53q-84 -138 -186 -138q-58 0 -198 64q-153 70 -229 70q-125 0 -206 -107q-35 -45 -75 -129zM105 277q0 -151 120 -231q104 -68 261 -68q156 0 268 94v-80h139v554 q0 148 -78 222q-114 108 -302 108q-16 0 -50 -2l-166 -13l10 -133q103 18 158 18q62 0 134 -14q84 -16 99 -33q56 -61 56 -137v-72q-71 94 -267 94h-8q-161 -2 -260 -72q-114 -81 -114 -235zM246 275v10q0 47 18 74q7 10 45 47q53 50 176 50h14q133 -3 209 -69 q53 -45 53 -110t-89 -121q-80 -50 -171 -50h-6q-149 0 -192 46q-55 58 -57 123z" />
<glyph unicode="&#xe4;" horiz-adv-x="1073" d="M105 277q0 -151 120 -231q104 -68 261 -68q156 0 268 94v-80h139v554q0 148 -78 222q-114 108 -302 108q-16 0 -50 -2l-166 -13l10 -133q103 18 158 18q62 0 134 -14q84 -16 99 -33q56 -61 56 -137v-72q-72 96 -275 94q-161 -2 -260 -72q-114 -81 -114 -235zM246 275 q-2 54 18 84q7 10 45 47q56 53 190 50q133 -3 209 -69q53 -45 53 -110t-89 -121q-80 -50 -171 -50q-154 -1 -198 46q-55 58 -57 123zM304 1108q0 -44 29 -74t73 -30q43 0 73 30t30 73t-30 72.5t-73 29.5q-42 0 -72 -29.5t-30 -71.5zM659 1108q0 -43 30 -73.5t73 -30.5 t72.5 30t29.5 73q0 42 -30 72t-72 30t-72.5 -29.5t-30.5 -71.5z" />
<glyph unicode="&#xe5;" horiz-adv-x="1017" d="M240 1270q0 -115 79 -194q80 -78 194 -78q116 0 194 78q79 79 79 195q0 113 -78 192q-78 80 -191 80q-118 0 -197 -78q-80 -78 -80 -195zM349 1271q0 69 48 116q50 48 118 47q68 -2 114 -49q48 -47 48 -114q0 -68 -48 -116t-116 -48t-116 48t-48 116zM105 277 q0 -151 120 -231q104 -68 261 -68q156 0 268 94v-80h139v554q0 148 -78 222q-114 108 -302 108q-16 0 -50 -2l-166 -13l10 -133q103 18 158 18q62 0 134 -14q84 -16 99 -33q56 -61 56 -137v-72q-71 94 -267 94h-8q-161 -2 -260 -72q-114 -81 -114 -235zM246 275v10 q0 47 18 74q7 10 45 47q53 50 176 50h14q133 -3 209 -69q53 -45 53 -110t-89 -121q-80 -50 -171 -50h-6q-149 0 -192 46q-55 58 -57 123z" />
<glyph unicode="&#xe7;" horiz-adv-x="892" d="M85 420q0 -162 103 -286q130 -159 349 -159q133 0 270 89v193q-128 -149 -275 -149q-132 0 -216 92q-82 88 -82 222q0 132 84 224q86 92 216 92q140 0 268 -141v192q-124 81 -264 81q-192 0 -316 -123q-137 -135 -137 -327zM306 -363l101 -51l206 263l-135 55z" />
<glyph unicode="&#xe8;" horiz-adv-x="986" d="M221 1271l276 -279l91 51l-216 296zM85 420q0 -178 95 -297q120 -148 324 -148q166 0 285 105q53 47 105 137l-123 69q-55 -91 -106 -130q-64 -49 -156 -49q-75 0 -136 37q-126 75 -134 251h663v26q0 197 -103 318q-110 131 -302 131t-305 -131q-107 -124 -107 -319z M248 518q17 96 86 158q70 62 165 62q125 0 200 -101q36 -48 49 -119h-500z" />
<glyph unicode="&#xe9;" horiz-adv-x="986" d="M85 420q0 -178 95 -297q120 -148 324 -148q166 0 285 105q53 47 105 137l-123 69q-55 -91 -106 -130q-64 -49 -156 -49q-75 0 -136 37q-126 75 -134 251h663v26q0 197 -103 318q-110 131 -302 131t-305 -131q-107 -124 -107 -319zM248 518q17 96 86 158q70 62 165 62 q125 0 200 -101q36 -48 49 -119h-500zM405 1047l91 -51l276 279l-151 68z" />
<glyph unicode="&#xea;" horiz-adv-x="986" d="M35 992h166l295 502l296 -502h167l-361 625h-202zM85 420q0 -178 95 -297q120 -148 324 -148q166 0 285 105q53 47 105 137l-123 69q-55 -91 -106 -130q-64 -49 -156 -49q-75 0 -136 37q-126 75 -134 251h663v26q0 197 -103 318q-110 131 -302 131t-305 -131 q-107 -124 -107 -319zM248 518q17 96 86 158q70 62 165 62q125 0 200 -101q36 -48 49 -119h-500z" />
<glyph unicode="&#xeb;" horiz-adv-x="986" d="M85 420q0 -178 95 -297q120 -148 324 -148q166 0 285 105q53 47 105 137l-123 69q-55 -91 -106 -130q-64 -49 -156 -49q-75 0 -136 37q-126 75 -134 251h663v26q0 197 -103 318q-110 131 -302 131t-305 -131q-107 -124 -107 -319zM248 518q17 96 86 158q70 62 165 62 q125 0 200 -101q36 -48 49 -119h-500zM234 1148q0 -44 29 -74t73 -30q43 0 73 30t30 73t-30 72.5t-73 29.5q-42 0 -72 -29.5t-30 -71.5zM589 1148q0 -43 30 -73.5t73 -30.5t72.5 30t29.5 73q0 42 -30 72t-72 30t-72.5 -29.5t-30.5 -71.5z" />
<glyph unicode="&#xec;" horiz-adv-x="425" d="M-63 1676l276 -279l91 51l-216 296zM108 1172q0 -44 30 -75t74 -31t74.5 30.5t30.5 74.5q0 43 -30.5 73.5t-73.5 30.5t-74 -30t-31 -73zM139 0h146v851h-146v-851z" />
<glyph unicode="&#xed;" horiz-adv-x="425" d="M125 1047l84 -51l242 279l-151 68zM140 0h146v851h-146v-851z" />
<glyph unicode="&#xee;" horiz-adv-x="425" d="M-30 1077l96 -81l145 170l146 -169l98 80l-244 266zM139 0h146v851h-146v-851z" />
<glyph unicode="&#xef;" horiz-adv-x="425" d="M-67 1501q0 -44 29 -74t73 -30q43 0 73 30t30 73t-30 72.5t-73 29.5q-42 0 -72 -29.5t-30 -71.5zM288 1501q0 -43 30 -73.5t73 -30.5t72.5 30t29.5 73q0 42 -30 72t-72 30t-72.5 -29.5t-30.5 -71.5zM108 1172q0 -44 30 -75t74 -31t74.5 30.5t30.5 74.5q0 43 -30.5 73.5 t-73.5 30.5t-74 -30t-31 -73zM139 0h146v851h-146v-851z" />
<glyph unicode="&#xf1;" horiz-adv-x="960" d="M-13 1050l89 -57q79 147 181 147q52 0 133 -36q222 -98 286 -98q103 0 183 70q59 51 113 161l-91 53q-84 -138 -186 -138q-58 0 -198 64q-153 70 -229 70q-125 0 -206 -107q-35 -45 -75 -129zM139 0h146v425q0 142 35 214q49 100 176 100q106 0 150 -71q28 -46 28 -165 v-503h146v528q0 152 -48 226q-76 117 -243 117q-145 0 -244 -123v103h-146v-851z" />
<glyph unicode="&#xf2;" horiz-adv-x="1068" d="M261 1271l276 -279l91 51l-216 296zM85 430q0 -120 52 -218q59 -110 163 -174q106 -63 231 -63q178 0 303 112q149 132 149 336q0 176 -115 301q-132 146 -329 146h-5q-184 -2 -309 -121q-140 -134 -140 -319zM234 427q0 116 67 201q86 110 229 110h3q135 -1 218 -90 t83 -226q0 -122 -66 -205q-89 -110 -238 -110q-135 0 -217 94q-79 88 -79 226z" />
<glyph unicode="&#xf3;" horiz-adv-x="1068" d="M85 430q0 -120 52 -218q59 -110 163 -174q106 -63 231 -63q178 0 303 112q149 132 149 336q0 176 -115 301q-132 146 -329 146h-5q-184 -2 -309 -121q-140 -134 -140 -319zM234 427q0 116 67 201q86 110 229 110h3q135 -1 218 -90t83 -226q0 -122 -66 -205 q-89 -110 -238 -110q-135 0 -217 94q-79 88 -79 226zM433 1047l91 -51l276 279l-151 68z" />
<glyph unicode="&#xf4;" horiz-adv-x="1068" d="M85 430q0 -120 52 -218q59 -110 163 -174q106 -63 231 -63q178 0 303 112q149 132 149 336q0 176 -115 301q-134 148 -334 146q-184 -2 -309 -121q-140 -134 -140 -319zM234 427q0 116 67 201q87 111 232 110q135 -1 218 -90t83 -226q0 -122 -66 -205q-89 -110 -238 -110 q-135 0 -217 94q-79 88 -79 226zM258 1077l103 -81l179 170l180 -169l105 80l-285 266z" />
<glyph unicode="&#xf5;" horiz-adv-x="1068" d="M85 430q0 -120 52 -218q59 -110 163 -174q106 -63 231 -63q178 0 303 112q149 132 149 336q0 176 -115 301q-132 146 -329 146h-5q-184 -2 -309 -121q-140 -134 -140 -319zM234 427q0 116 67 201q86 110 229 110h3q135 -1 218 -90t83 -226q0 -122 -66 -205 q-89 -110 -238 -110q-135 0 -217 94q-79 88 -79 226zM353 1044l75 -48l272 284l-131 63zM626 1044l75 -48l272 284l-131 63z" />
<glyph unicode="&#xf6;" horiz-adv-x="1068" d="M85 430q0 -120 52 -218q59 -110 163 -174q106 -63 231 -63q178 0 303 112q149 132 149 336q0 176 -115 301q-132 146 -329 146h-5q-184 -2 -309 -121q-140 -134 -140 -319zM234 427q0 116 67 201q86 110 229 110h3q135 -1 218 -90t83 -226q0 -122 -66 -205 q-89 -110 -238 -110q-135 0 -217 94q-79 88 -79 226zM254 1148q0 -44 29 -74t73 -30q43 0 73 30t30 73t-30 72.5t-73 29.5q-42 0 -72 -29.5t-30 -71.5zM609 1148q0 -43 30 -73.5t73 -30.5t72.5 30t29.5 73q0 42 -30 72t-72 30t-72.5 -29.5t-30.5 -71.5z" />
<glyph unicode="&#xf7;" d="M98 633h964v126h-964v-126zM484 429q0 -40 28 -68.5t68 -28.5t68 28t28 68t-28 68t-68 28t-68 -27.5t-28 -67.5zM484 966q0 -40 28 -68.5t68 -28.5t68 28t28 68t-28 68t-68 28t-68 -27.5t-28 -67.5z" />
<glyph unicode="&#xf9;" horiz-adv-x="953" d="M199 1271l276 -279l91 51l-216 296zM135 325q0 -153 48 -226q77 -117 243 -117q88 0 124 17q87 43 120 76v-73h146v851h-146v-425q0 -203 -40 -240q-77 -74 -171 -74q-106 0 -150 71q-28 46 -28 165v503h-146v-528z" />
<glyph unicode="&#xfa;" horiz-adv-x="953" d="M135 325q0 -153 48 -226q77 -117 243 -117q88 0 124 17q87 43 120 76v-73h146v851h-146v-425q0 -203 -40 -240q-77 -74 -171 -74q-106 0 -150 71q-28 46 -28 165v503h-146v-528zM368 1047l91 -51l276 279l-151 68z" />
<glyph unicode="&#xfb;" horiz-adv-x="953" d="M135 325q0 -153 48 -226q77 -117 243 -117q88 0 124 17q87 43 120 76v-73h146v851h-146v-425q0 -203 -40 -240q-77 -74 -171 -74q-106 0 -150 71q-28 46 -28 165v503h-146v-528zM282 1044l75 -48l272 284l-131 63zM555 1044l75 -48l272 284l-131 63z" />
<glyph unicode="&#xfc;" horiz-adv-x="953" d="M135 325q0 -153 48 -226q77 -117 243 -117q88 0 124 17q87 43 120 76v-73h146v851h-146v-425q0 -203 -40 -240q-77 -74 -171 -74q-106 0 -150 71q-28 46 -28 165v503h-146v-528zM216 1148q0 -44 29 -74t73 -30q43 0 73 30t30 73t-30 72.5t-73 29.5q-42 0 -72 -29.5 t-30 -71.5zM571 1148q0 -43 30 -73.5t73 -30.5t72.5 30t29.5 73q0 42 -30 72t-72 30t-72.5 -29.5t-30.5 -71.5z" />
<glyph unicode="&#xfd;" horiz-adv-x="942" d="M16 851l391 -770l-275 -560h165l628 1330h-165l-275 -609l-300 609h-169zM362 1047l91 -51l276 279l-151 68z" />
<glyph unicode="&#xfe;" horiz-adv-x="439" d="M1 716h229v-716h146v716h220v135h-220v305h-146v-305h-229v-135zM55 -433l104 -33l134 314l-141 43z" />
<glyph unicode="&#xff;" horiz-adv-x="942" d="M190 1096q0 -44 29 -74t73 -30q43 0 73 30t30 73t-30 72.5t-73 29.5q-42 0 -72 -29.5t-30 -71.5zM545 1096q0 -43 30 -73.5t73 -30.5t72.5 30t29.5 73q0 42 -30 72t-72 30t-72.5 -29.5t-30.5 -71.5zM16 851l391 -770l-275 -560h165l628 1330h-165l-275 -609l-300 609 h-169z" />
<glyph unicode="&#x152;" horiz-adv-x="2613" d="M1803 0h707v142h-554v534h539v142h-539v405h554v142h-707v-1365zM102 690q0 -197 92 -360q93 -162 259 -259q167 -96 353 -96q199 0 368 100q162 95 256 257q93 160 93 349q0 193 -97 354q-96 164 -259 258q-162 95 -345 95h-8q-285 -3 -487 -195q-225 -211 -225 -503z M256 689q0 204 136 361q168 195 418 195h3q227 -1 386 -157q170 -167 170 -407q0 -145 -69 -273q-74 -135 -206 -212q-134 -78 -286 -78q-235 0 -395 169q-157 166 -157 402z" />
<glyph unicode="&#x153;" horiz-adv-x="2054" d="M1153 420q0 -178 95 -297q120 -148 324 -148q166 0 285 105q53 47 105 137l-123 69q-55 -91 -106 -130q-64 -49 -156 -49q-75 0 -136 37q-126 75 -134 251h663v26q0 197 -103 318q-110 131 -302 131t-305 -131q-107 -124 -107 -319zM1316 518q17 96 86 158q70 62 165 62 q125 0 200 -101q36 -48 49 -119h-500zM85 430q0 -120 52 -218q59 -110 163 -174q106 -63 231 -63q178 0 303 112q149 132 149 336q0 176 -115 301q-132 146 -329 146h-5q-184 -2 -309 -121q-140 -134 -140 -319zM234 427q0 116 67 201q86 110 229 110h3q135 -1 218 -90 t83 -226q0 -122 -66 -205q-89 -110 -238 -110q-135 0 -217 94q-79 88 -79 226z" />
<glyph unicode="&#x178;" horiz-adv-x="1081" d="M261 1614q0 -44 29 -74t73 -30q43 0 73 30t30 73t-30 72.5t-73 29.5q-42 0 -72 -29.5t-30 -71.5zM616 1614q0 -43 30 -73.5t73 -30.5t72.5 30t29.5 73q0 42 -30 72t-72 30t-72.5 -29.5t-30.5 -71.5zM14 1365l447 -778v-587h153v587l454 778h-177l-353 -609l-348 609h-176 z" />
<glyph unicode="&#x2c6;" horiz-adv-x="1024" d="M50 745h166l295 502l296 -502h167l-361 625h-202z" />
<glyph unicode="&#x2d9;" horiz-adv-x="1024" d="M408 1147q0 -44 30.5 -75t74.5 -31t74 30.5t30 74.5t-30.5 74t-74.5 30q-43 0 -73.5 -30t-30.5 -73z" />
<glyph unicode="&#x2dc;" horiz-adv-x="512" d="M-492 179l89 -57q79 147 181 147q52 0 133 -36q222 -98 286 -98q103 0 183 70q59 51 113 161l-91 53q-84 -138 -186 -138q-58 0 -198 64q-153 70 -229 70q-125 0 -206 -107q-35 -45 -75 -129z" />
<glyph unicode="&#x2dd;" horiz-adv-x="1024" d="M297 1044l75 -48l272 284l-131 63zM570 1044l75 -48l272 284l-131 63z" />
<glyph unicode="&#x2000;" horiz-adv-x="1067" />
<glyph unicode="&#x2001;" horiz-adv-x="2135" />
<glyph unicode="&#x2002;" horiz-adv-x="1067" />
<glyph unicode="&#x2003;" horiz-adv-x="2135" />
<glyph unicode="&#x2004;" horiz-adv-x="711" />
<glyph unicode="&#x2005;" horiz-adv-x="533" />
<glyph unicode="&#x2006;" horiz-adv-x="355" />
<glyph unicode="&#x2007;" horiz-adv-x="355" />
<glyph unicode="&#x2008;" horiz-adv-x="266" />
<glyph unicode="&#x2009;" horiz-adv-x="427" />
<glyph unicode="&#x200a;" horiz-adv-x="118" />
<glyph unicode="&#x2010;" horiz-adv-x="540" d="M0 371h541v131h-541v-131z" />
<glyph unicode="&#x2011;" horiz-adv-x="540" d="M0 371h541v131h-541v-131z" />
<glyph unicode="&#x2012;" horiz-adv-x="540" d="M0 371h541v131h-541v-131z" />
<glyph unicode="&#x2013;" d="M240 371h681v131h-681v-131z" />
<glyph unicode="&#x2014;" horiz-adv-x="1114" d="M0 371h1114v131h-1114v-131z" />
<glyph unicode="&#x2018;" horiz-adv-x="535" d="M116 972l134 -49l169 472l-97 39z" />
<glyph unicode="&#x2019;" horiz-adv-x="517" d="M94 962l98 -39l206 462l-134 49z" />
<glyph unicode="&#x201a;" horiz-adv-x="517" d="M94 -267l98 -39l206 462l-134 49z" />
<glyph unicode="&#x201c;" horiz-adv-x="836" d="M116 972l134 -49l169 472l-97 39zM416 972l134 -49l169 472l-97 39z" />
<glyph unicode="&#x201d;" horiz-adv-x="835" d="M116 962l98 -39l205 462l-133 49zM416 962l98 -39l205 462l-133 49z" />
<glyph unicode="&#x201e;" horiz-adv-x="835" d="M116 -272l98 -39l205 462l-133 49zM416 -272l98 -39l205 462l-133 49z" />
<glyph unicode="&#x2022;" horiz-adv-x="1365" d="M401 694q0 -120 82 -202t202 -82q121 0 202 81q82 82 82 203q0 118 -81 201t-199 83q-123 0 -206 -81q-82 -79 -82 -203z" />
<glyph unicode="&#x2026;" horiz-adv-x="1527" d="M154 82q0 -42 29.5 -72t71.5 -30t71 29.5t29 71.5q0 43 -29 72t-72 28q-42 -1 -71 -29t-29 -70zM663 82q0 -42 29.5 -72t71.5 -30t71 29.5t29 71.5q0 43 -29 72t-72 28q-42 -1 -71 -29t-29 -70zM1173 82q0 -42 29.5 -72t71.5 -30t71 29.5t29 71.5q0 44 -29 72.5t-72 27.5 q-42 0 -71 -29t-29 -70z" />
<glyph unicode="&#x202f;" horiz-adv-x="427" />
<glyph unicode="&#x2039;" horiz-adv-x="578" d="M75 437l306 -376l95 76l-244 300l244 309l-96 75z" />
<glyph unicode="&#x203a;" horiz-adv-x="578" d="M102 137l95 -76l306 376l-306 384l-95 -75l244 -309z" />
<glyph unicode="&#x205f;" horiz-adv-x="533" />
<glyph unicode="&#x2122;" horiz-adv-x="1476" d="M8 1272h185v-685h99v685h186v93h-470v-93zM552 587h96l74 528l256 -567l261 567l70 -528h96l-125 828l-301 -646l-293 646z" />
<glyph unicode="&#xe000;" horiz-adv-x="850" d="M0 850h850v-850h-850v850z" />
<glyph unicode="&#xfb01;" horiz-adv-x="915" d="M598 1172q0 -44 30 -75t74 -31t74.5 30.5t30.5 74.5q0 43 -30.5 73.5t-73.5 30.5t-74 -30t-31 -73zM629 0h146v851h-146v-851zM-51 716v135h191v360q0 148 50 215q69 91 203 91q91 0 183 -81l-90 -104q-34 35 -84 40h-12q-66 0 -90 -62q-14 -39 -14 -132v-327h193v-135 h-193v-716h-146v716h-191z" />
<glyph unicode="&#xfb02;" horiz-adv-x="915" d="M629 0h146v1494h-146v-1494zM-51 716v135h191v360q0 148 50 215q69 91 203 91q91 0 183 -81l-90 -104q-34 35 -84 40h-12q-66 0 -90 -62q-14 -39 -14 -132v-327h193v-135h-193v-716h-146v716h-191z" />
<glyph unicode="&#xfb03;" horiz-adv-x="1405" d="M1088 1172q0 -44 30 -75t74 -31t74.5 30.5t30.5 74.5q0 43 -30.5 73.5t-73.5 30.5t-74 -30t-31 -73zM1119 0h146v851h-146v-851zM439 716v135h191v360q0 148 50 215q69 91 203 91q91 0 183 -81l-90 -104q-34 35 -84 40h-12q-66 0 -90 -62q-14 -39 -14 -132v-327h193v-135 h-193v-716h-146v716h-191zM-51 716v135h191v360q0 148 50 215q69 91 203 91q91 0 183 -81l-90 -104q-34 35 -84 40h-12q-66 0 -90 -62q-14 -39 -14 -132v-327h193v-135h-193v-716h-146v716h-191z" />
<glyph unicode="&#xfb04;" horiz-adv-x="1405" d="M1119 0h146v1494h-146v-1494zM439 716v135h191v360q0 148 50 215q69 91 203 91q91 0 183 -81l-90 -104q-34 35 -84 40h-12q-66 0 -90 -62q-14 -39 -14 -132v-327h193v-135h-193v-716h-146v716h-191zM-51 716v135h191v360q0 148 50 215q69 91 203 91q91 0 183 -81 l-90 -104q-34 35 -84 40h-12q-66 0 -90 -62q-14 -39 -14 -132v-327h193v-135h-193v-716h-146v716h-191z" />
<glyph horiz-adv-x="512" />
</font>
</defs>
</svg>
