<?xml version="1.0" standalone="no"?>
<!DOCTYPE svg PUBLIC "-//W3C//DTD SVG 1.1//EN" "http://www.w3.org/Graphics/SVG/1.1/DTD/svg11.dtd" >
<svg xmlns="http://www.w3.org/2000/svg">
<metadata>
This is a custom SVG webfont generated by Fontspring.
</metadata>
<defs>
<font id="FunctionProBook" horiz-adv-x="1161" >
<font-face units-per-em="2048" ascent="1542" descent="-506" />
<missing-glyph horiz-adv-x="512" />
<glyph unicode=" "  horiz-adv-x="512" />
<glyph unicode="&#x09;" horiz-adv-x="512" />
<glyph unicode="&#xa0;" horiz-adv-x="512" />
<glyph unicode="!" horiz-adv-x="571" d="M184 82q0 41 31 70.5t72 29.5t70.5 -29.5t29.5 -70.5q0 -43 -29.5 -72.5t-72.5 -29.5q-41 0 -71 30.5t-30 71.5zM211 276v1090h149v-1090h-149z" />
<glyph unicode="&#x22;" horiz-adv-x="673" d="M109 1366h165l-28 -549h-111zM401 1366h164l-26 -549h-111z" />
<glyph unicode="#" horiz-adv-x="1228" d="M100 434v123h234l35 285h-217v123h233l49 411l129 -16l-49 -395h289l51 411l127 -16l-49 -395h213v-123h-225l-37 -285h211v-123h-226l-55 -440l-127 18l51 422h-288l-56 -440l-127 18l51 422h-217zM465 557h287l34 285h-286z" />
<glyph unicode="$" d="M158 332l147 41q16 -106 82 -172t162 -74v551q-174 72 -248 152.5t-74 201.5q0 135 87 229.5t235 116.5v185h121v-187q88 -10 164.5 -66.5t121.5 -140.5l-118 -77q-70 119 -168 141v-449q117 -51 182 -96q154 -100 154 -289q0 -152 -91.5 -263t-244.5 -144v-199h-121v191 q-145 4 -254.5 101t-136.5 247zM381 1030q0 -117 168 -192v397q-78 -20 -123 -74.5t-45 -130.5zM670 137q86 35 134 100.5t48 153.5q0 78 -42 131t-140 101v-486z" />
<glyph unicode="%" horiz-adv-x="1464" d="M68 1087q0 119 90 206t213 87q127 0 216 -87t89 -212t-89 -211t-218 -86q-125 0 -213 88t-88 215zM188 1085q0 -78 53.5 -132t131.5 -54q76 0 129 54.5t53 130t-54.5 130t-129.5 54.5q-74 0 -128.5 -53.5t-54.5 -129.5zM295 20l795 1373l77 -45l-794 -1375zM788 289 q0 119 90.5 206t213.5 87q127 0 216 -87t89 -212t-89 -211t-218 -86q-125 0 -213.5 88t-88.5 215zM909 287q0 -78 54.5 -132.5t130 -54.5t129 54.5t53.5 130t-54.5 130t-129.5 54.5q-74 0 -128.5 -53t-54.5 -129z" />
<glyph unicode="&#x26;" horiz-adv-x="1302" d="M109 354q0 188 184 336q45 37 168 117q-80 106 -108.5 167.5t-28.5 125.5q0 125 85 207t214 82q123 0 206.5 -79t83.5 -196q0 -119 -104 -223q-43 -43 -137 -113l286 -366q66 66 156 180l109 -92q-68 -96 -174 -203l233 -297h-190l-150 190q-238 -217 -438 -217 q-164 0 -279.5 110.5t-115.5 270.5zM258 360q0 -100 72.5 -173.5t171.5 -73.5q141 0 350 190l-303 393l-158 -112q-133 -107 -133 -224zM469 1108q0 -43 16.5 -75t87.5 -130q4 0 11 -14q123 90 153.5 129t30.5 98q0 61 -42 101t-108 40q-61 0 -105 -43t-44 -106z" />
<glyph unicode="'" horiz-adv-x="382" d="M109 1366h165l-28 -549h-111z" />
<glyph unicode="(" horiz-adv-x="602" d="M170 567q0 262 46 514t124 420l131 -59q-154 -391 -154 -875q0 -485 154 -876l-131 -60q-78 168 -124 421t-46 515z" />
<glyph unicode=")" horiz-adv-x="602" d="M129 -309q154 391 154 876q0 483 -154 875l129 59q80 -166 126 -418t46 -516t-46 -516t-126 -420z" />
<glyph unicode="*" d="M242 1198l43 129l237 -88l-10 254h137l-10 -254l238 88l43 -129l-246 -70l157 -198l-110 -82l-141 213l-140 -213l-110 82l157 198z" />
<glyph unicode="+" d="M98 635v125h420v411h125v-411h420v-125h-420v-414h-125v414h-420z" />
<glyph unicode="," horiz-adv-x="464" d="M49 -272l170 473l133 -49l-205 -463z" />
<glyph unicode="-" horiz-adv-x="370" d="M0 371v131h371v-131h-371z" />
<glyph unicode="." horiz-adv-x="464" d="M131 82q0 41 29.5 70.5t70.5 29.5q43 0 73 -29.5t30 -70.5q0 -43 -30 -72.5t-71 -29.5q-43 0 -72.5 29.5t-29.5 72.5z" />
<glyph unicode="/" horiz-adv-x="993" d="M-29 -313l893 1814l119 -53l-893 -1817z" />
<glyph unicode="0" d="M92 688q0 293 142.5 495.5t347.5 202.5q207 0 347 -201.5t140 -498.5q0 -295 -135 -500q-66 -96 -161 -152.5t-191 -56.5q-100 0 -197.5 59.5t-163.5 160.5q-129 202 -129 491zM242 686q0 -246 96 -406.5t244 -160.5q141 0 239.5 163.5t98.5 399.5q0 242 -97.5 403.5 t-242.5 161.5q-143 0 -240.5 -161.5t-97.5 -399.5z" />
<glyph unicode="1" d="M315 1225l80 141h299v-1366h-153v1225h-226z" />
<glyph unicode="2" d="M102 0l496 575q137 158 187.5 245t50.5 165q0 109 -80 185.5t-195 76.5q-70 0 -131 -32.5t-96 -86.5q-37 -61 -45 -161h-154q16 154 70 235q55 86 150.5 135t203.5 49q180 0 303 -117.5t123 -287.5q0 -113 -57.5 -213t-237.5 -307l-278 -320h571v-141h-881z" />
<glyph unicode="3" d="M133 354h148q14 -90 47 -133q33 -45 93 -73.5t122 -28.5q113 0 190.5 80t77.5 194q0 76 -37 137.5t-98 90.5q-55 27 -156 28v133q106 2 162 35q109 61 109 199q0 100 -67 165.5t-167 65.5q-129 0 -188 -88q-29 -41 -43 -131h-150q18 129 64 201q96 158 315 157 q168 0 276.5 -104t108.5 -262q0 -205 -174 -303q92 -43 143.5 -130t51.5 -200q0 -176 -121 -293t-303 -117q-115 0 -210.5 52.5t-144.5 140.5q-41 71 -49 184z" />
<glyph unicode="4" d="M39 223l852 1217v-1080h168v-137h-168v-223h-152v223h-700zM307 360h432v617z" />
<glyph unicode="5" d="M68 221l120 86q119 -188 310 -188q143 0 241.5 100t98.5 246q0 143 -97.5 241.5t-240.5 98.5q-119 0 -264 -92l198 653h543v-141h-436l-90 -293q47 8 77 8q199 0 329 -134t130 -339q0 -211 -142.5 -350.5t-359.5 -139.5q-265 0 -417 244z" />
<glyph unicode="6" d="M109 438q0 158 112 316l465 647l115 -86l-316 -438q68 20 127 20q182 0 309.5 -132t127.5 -319q0 -193 -137.5 -331t-331.5 -138q-193 0 -332 136.5t-139 324.5zM258 440q0 -133 94 -227t228 -94q131 0 225 94t94 223q0 137 -93 231.5t-226.5 94.5t-227.5 -94.5 t-94 -227.5z" />
<glyph unicode="7" d="M121 47l774 1178h-745v141h1005l-915 -1399z" />
<glyph unicode="8" d="M174 377q0 229 203 334q-168 100 -168 301q0 160 109.5 267t273.5 107t273.5 -107.5t109.5 -266.5q0 -92 -47 -174t-125 -127q94 -47 146 -133t52 -197q0 -174 -116.5 -289t-292.5 -115q-178 0 -298 115t-120 285zM324 385q0 -111 76.5 -188.5t187.5 -77.5 q109 0 186.5 76.5t77.5 185t-78 185.5t-186 77q-106 0 -185 -77t-79 -181zM354 1014q0 -100 70 -171t168 -71t167.5 69.5t69.5 168t-69.5 168t-167.5 69.5q-96 0 -167 -69.5t-71 -163.5z" />
<glyph unicode="9" d="M111 922q0 193 137 328.5t331.5 135.5t334 -135t139.5 -323q0 -160 -113 -316l-467 -645l-113 84l314 438q-66 -18 -125 -18q-182 0 -310 131.5t-128 319.5zM260 930q0 -135 94.5 -229.5t227.5 -94.5t227 94.5t94 227.5t-94 226t-227 93t-227.5 -93t-94.5 -224z" />
<glyph unicode=":" horiz-adv-x="464" d="M131 82q0 41 29.5 70.5t70.5 29.5q43 0 73 -29.5t30 -70.5q0 -43 -30 -72.5t-71 -29.5q-43 0 -72.5 29.5t-29.5 72.5zM131 770q0 41 29.5 70.5t70.5 29.5q43 0 73 -29.5t30 -70.5q0 -43 -30 -72.5t-71 -29.5q-43 0 -72.5 29.5t-29.5 72.5z" />
<glyph unicode=";" horiz-adv-x="464" d="M49 -272l170 473l133 -49l-205 -463zM164 770q0 41 30.5 70.5t71.5 29.5t71 -29.5t30 -70.5q0 -43 -30 -72.5t-73 -29.5q-41 0 -70.5 30.5t-29.5 71.5z" />
<glyph unicode="&#x3c;" horiz-adv-x="1024" d="M68 623v133l886 418v-154l-723 -330l723 -332v-151z" />
<glyph unicode="=" d="M98 510v119h965v-119h-965zM98 764v119h965v-119h-965z" />
<glyph unicode="&#x3e;" horiz-adv-x="1024" d="M70 207v151l723 332l-723 330v154l886 -418v-133z" />
<glyph unicode="?" horiz-adv-x="892" d="M117 1071q0 131 95 221t234 90q143 0 237.5 -93t94.5 -234q0 -174 -129 -264q-59 -41 -211 -84q-139 -41 -139 -150q0 -61 43 -104t102 -43q88 0 127 75q18 39 21 101h147q-2 -102 -39 -170q-39 -66 -106.5 -105t-149.5 -39q-125 0 -208.5 85t-83.5 210q0 102 58 169 t189 108q133 43 168 71q61 45 62 140q0 80 -52.5 133t-134.5 53q-78 0 -129 -51t-51 -127q0 -35 12 -86h-149q-8 65 -8 94zM346 82q0 41 31 70.5t71.5 29.5t70.5 -29.5t30 -70.5q0 -43 -30 -72.5t-73 -29.5q-41 0 -70.5 30.5t-29.5 71.5z" />
<glyph unicode="@" horiz-adv-x="1474" d="M51 684q0 299 206 503t507 204q276 0 462.5 -176.5t186.5 -436.5q0 -199 -98 -345t-232 -146q-106 0 -147 121q-63 -68 -119.5 -95.5t-132.5 -27.5q-147 0 -245.5 105.5t-98.5 264.5q0 172 109.5 287t273.5 115q147 0 242 -115l10 98h135l-55 -465q-8 -70 -8 -94 q0 -66 55 -65q72 0 130 108.5t58 243.5q0 219 -148.5 359.5t-379.5 140.5q-244 0 -411 -169t-167 -415q0 -160 76 -296t207 -212t324 -76q209 0 448 113l43 -119q-238 -119 -489 -119q-233 0 -398 97q-160 92 -252 255.5t-92 356.5zM496 651q0 -102 55 -167.5t141 -65.5 q96 0 170 87t74 204q0 94 -56.5 154.5t-144.5 60.5q-100 0 -169.5 -79t-69.5 -194z" />
<glyph unicode="A" horiz-adv-x="1269" d="M14 0l629 1432l614 -1432h-167l-162 387h-584l-164 -387h-166zM408 528h460l-227 547z" />
<glyph unicode="B" horiz-adv-x="1085" d="M178 0v1366h248q205 0 309 -86q127 -100 127 -285q0 -168 -135 -264q121 -35 189.5 -127t68.5 -219q0 -180 -137 -293q-115 -92 -330 -92h-340zM332 764h114q133 0 193 53q74 63 74 176q0 115 -72 181q-59 51 -190 51h-119v-461zM332 141h174q164 0 239 60q88 72 89 188 q0 63 -32 118.5t-83 84.5q-80 43 -234 43h-153v-494z" />
<glyph unicode="C" horiz-adv-x="1323" d="M102 678q0 293 210 502t505 209q211 0 404 -136v-188q-193 180 -414 180q-225 0 -388 -168t-163 -401q0 -229 163 -393t390 -164q221 0 412 178v-188q-195 -133 -412 -134q-289 0 -498 208t-209 495z" />
<glyph unicode="D" horiz-adv-x="1296" d="M178 1366h281q315 0 502 -158q236 -197 235.5 -524.5t-240.5 -525.5q-100 -84 -216.5 -121t-282.5 -37h-279v1366zM332 141h133q242 0 391 125q186 158 186 416q0 262 -184 418q-150 125 -393 125h-133v-1084z" />
<glyph unicode="E" horiz-adv-x="987" d="M178 0v1366h707v-141h-553v-408h538v-141h-538v-535h553v-141h-707z" />
<glyph unicode="F" horiz-adv-x="886" d="M178 0v1366h621v-141h-467v-408h452v-141h-452v-676h-154z" />
<glyph unicode="G" horiz-adv-x="1552" d="M102 680q0 293 209 501t504 208q238 0 418 -140q72 -51 158 -157l-113 -103q-102 133 -212 194.5t-249 61.5q-233 0 -397 -166t-164 -401q0 -227 163 -393t386 -166q127 0 244.5 64.5t181.5 168.5q47 74 55 193h-405v141h569v-35q0 -217 -72 -346q-82 -150 -238.5 -240 t-336.5 -90q-289 0 -495 207t-206 498z" />
<glyph unicode="H" horiz-adv-x="1357" d="M178 0v1366h154v-557h696v557h154v-1366h-154v668h-696v-668h-154z" />
<glyph unicode="I" horiz-adv-x="507" d="M178 0v1366h154v-1366h-154z" />
<glyph unicode="J" horiz-adv-x="628" d="M-96 -41l84 119q86 -76 157 -76q80 0 116 62.5t36 197.5v1104h154v-1104q0 -127 -21.5 -197.5t-75.5 -121.5q-84 -84 -204.5 -84t-245.5 100z" />
<glyph unicode="K" horiz-adv-x="1165" d="M178 0v1366h154v-586l581 586h205l-641 -637l662 -729h-209l-559 627l-39 -39v-588h-154z" />
<glyph unicode="L" horiz-adv-x="733" d="M178 0v1366h154v-1225h375v-141h-529z" />
<glyph unicode="M" horiz-adv-x="1767" d="M129 0l225 1442l525 -1153l536 1155l211 -1444h-156l-127 950l-464 -1007l-459 1007l-135 -950h-156z" />
<glyph unicode="N" horiz-adv-x="1570" d="M178 0v1423l1063 -1116v1059h154v-1427l-1063 1114v-1053h-154z" />
<glyph unicode="O" horiz-adv-x="1626" d="M102 690q0 283 212 491t501 208q291 0 500 -208t209 -499q0 -293 -210 -500t-507 -207q-145 0 -285.5 63.5t-242.5 176.5q-177 199 -177 475zM256 690q0 -252 174 -416q166 -156 379 -155q233 0 397 163.5t164 399.5q0 233 -163 398t-394 165q-229 0 -393 -164t-164 -391 z" />
<glyph unicode="P" horiz-adv-x="935" d="M178 0v1366h248q233 0 344 -96q127 -106 127 -289q0 -170 -113 -279q-111 -104 -319 -104h-133v-598h-154zM332 737h123q139 0 216 64.5t77 181.5q0 115 -76 180q-74 61 -228 62h-112v-488z" />
<glyph unicode="Q" horiz-adv-x="1626" d="M102 678q0 293 209 502t502 209q295 0 503 -209t208 -506q0 -139 -45 -250t-152 -229l205 -209h-195l-114 123q-186 -133 -414 -134q-293 0 -500 206t-207 497zM256 678q0 -231 161 -395t390 -164q174 0 309 98l-330 332h199l236 -246q150 166 149 375 q0 238 -161.5 402.5t-395.5 164.5q-236 0 -396.5 -164.5t-160.5 -402.5z" />
<glyph unicode="R" horiz-adv-x="1028" d="M178 0v1366h221q219 0 328 -74q72 -47 112 -130t40 -179q0 -156 -94.5 -257t-249.5 -116l434 -610h-187l-411 598h-39v-598h-154zM332 733h96q143 0 222 64.5t79 185.5q0 135 -100 197q-72 45 -207 45h-90v-492z" />
<glyph unicode="S" horiz-adv-x="1058" d="M102 328l148 41q57 -250 278 -250q115 0 195 77.5t80 190.5q0 125 -113 195q-51 33 -241 118q-147 66 -212 145t-65 191q0 152 109.5 252.5t273.5 100.5q229 0 352 -213l-121 -78q-51 82 -103 114.5t-132 32.5q-96 0 -160.5 -60.5t-64.5 -150.5q0 -88 86 -147 q49 -33 235 -115q164 -72 236.5 -160t72.5 -217q0 -176 -125.5 -298t-308.5 -122q-162 0 -271.5 92.5t-148.5 260.5z" />
<glyph unicode="T" horiz-adv-x="870" d="M27 1225v141h815v-141h-332v-1225h-154v1225h-329z" />
<glyph unicode="U" horiz-adv-x="1329" d="M178 487v879h154v-838q0 -184 45 -262q41 -66 121 -106.5t166 -40.5q88 0 167.5 41t120.5 106q45 78 45 262v838h154v-879q0 -209 -90 -323q-68 -88 -173.5 -138.5t-222 -50.5t-224 50.5t-173.5 138.5q-90 114 -90 323z" />
<glyph unicode="V" horiz-adv-x="1134" d="M14 1366h168l387 -1040l387 1040h166l-555 -1446z" />
<glyph unicode="W" horiz-adv-x="1955" d="M14 1366h166l365 -1024l428 1094l403 -1094l402 1024h166l-572 -1436l-403 1092l-430 -1092z" />
<glyph unicode="X" horiz-adv-x="1028" d="M27 0l403 707l-369 659h175l282 -514l289 514h174l-377 -659l395 -707h-170l-313 561l-317 -561h-172z" />
<glyph unicode="Y" horiz-adv-x="1081" d="M14 1366h176l349 -610l352 610h178l-455 -778v-588h-153v588z" />
<glyph unicode="Z" horiz-adv-x="1093" d="M47 0l746 1225h-650v141h901l-743 -1225h725v-141h-979z" />
<glyph unicode="[" horiz-adv-x="595" d="M164 -360v1853h344v-137h-195v-1579h195v-137h-344z" />
<glyph unicode="\" horiz-adv-x="993" d="M10 1448l119 53l893 -1814l-119 -56z" />
<glyph unicode="]" horiz-adv-x="595" d="M88 -223h195v1579h-195v137h344v-1853h-344v137z" />
<glyph unicode="^" horiz-adv-x="1024" d="M49 745l361 625h202l361 -625h-166l-297 502l-295 -502h-166z" />
<glyph unicode="_" horiz-adv-x="1024" d="M0 -131h1024v-141h-1024v141z" />
<glyph unicode="`" horiz-adv-x="1024" d="M233 1276l152 67l215 -294l-90 -52z" />
<glyph unicode="a" horiz-adv-x="1073" d="M86 428q0 193 114.5 317.5t291 124.5t296.5 -141v121h146v-850h-146v119q-119 -143 -292 -144q-176 0 -293 128t-117 325zM236 430q0 -139 78.5 -230t199.5 -91q125 0 205 89t80 228q0 137 -79 224t-204 87q-119 0 -199.5 -88t-80.5 -219z" />
<glyph unicode="b" horiz-adv-x="1073" d="M139 0v1493h146v-764q121 139 297 139t290.5 -125t114.5 -317q0 -195 -116.5 -323t-293 -128t-292.5 142v-117h-146zM274 424q0 -139 79 -227t204 -88q121 0 201 89t80 222q0 137 -79 226t-200 89q-127 0 -206 -87t-79 -224z" />
<glyph unicode="c" horiz-adv-x="890" d="M84 419.5q0 188.5 130 318.5t323 130q141 0 264 -80v-192q-70 76 -130.5 107.5t-138.5 31.5q-127 0 -213 -91t-86 -222q0 -133 85 -223t212 -90q80 0 142.5 32.5t134.5 114.5v-193q-141 -88 -272 -88q-190 0 -320.5 128t-130.5 316.5z" />
<glyph unicode="d" horiz-adv-x="1073" d="M86 426q0 193 114.5 317.5t291 124.5t296.5 -139v764h146v-1493h-146v117q-117 -141 -294 -142q-176 0 -292 128t-116 323zM236 430q0 -139 78.5 -230t199.5 -91q125 0 205 89t80 228q0 137 -79 223t-204 86q-119 0 -199.5 -88t-80.5 -217z" />
<glyph unicode="e" horiz-adv-x="985" d="M84 420q0 199 114.5 323.5t297 124.5t294 -122.5t111.5 -325.5v-25h-663q6 -131 80.5 -208.5t189.5 -77.5q84 0 142.5 39.5t119.5 138.5l123 -70q-137 -242 -391 -242q-184 0 -301 124t-117 321zM248 518h500q-20 100 -88 159.5t-162 59.5q-92 0 -163 -61.5t-87 -157.5z " />
<glyph unicode="f" horiz-adv-x="489" d="M59 715v135h80v362q0 152 49 215q72 90 205 91q45 0 107 -19v-147q-57 20 -99 20q-70 0 -93 -40t-23 -154v-328h215v-135h-215v-715h-146v715h-80z" />
<glyph unicode="g" horiz-adv-x="1075" d="M84 422q0 193 117.5 320.5t294.5 127.5q172 0 292 -141v121h146v-832q0 -125 -17.5 -197.5t-64.5 -135.5q-117 -158 -338 -158q-184 0 -296 104.5t-118 284.5h144q8 -92 41 -143q74 -113 231 -113q272 0 272 334v125q-123 -141 -301 -142q-172 0 -287.5 128.5 t-115.5 316.5zM233 424q0 -137 78 -225t199 -88q125 0 205 87t80 224q0 139 -79 227t-204 88q-121 0 -200 -88t-79 -225z" />
<glyph unicode="h" horiz-adv-x="960" d="M139 0v1493h146v-743q98 119 243 118q78 0 143.5 -31.5t100.5 -84.5q49 -76 49 -226v-526h-145v516q0 117 -41 168t-135 51q-131 0 -181 -100q-35 -70 -34 -211v-424h-146z" />
<glyph unicode="i" horiz-adv-x="425" d="M109 1174q0 41 30.5 71.5t73.5 30.5t73.5 -31t30.5 -74t-30.5 -73.5t-73.5 -30.5t-73.5 31t-30.5 76zM139 0v850h146v-850h-146z" />
<glyph unicode="j" horiz-adv-x="425" d="M109 1174q0 41 30.5 71.5t73.5 30.5t73.5 -31t30.5 -74t-30.5 -73.5t-73.5 -30.5t-73.5 31t-30.5 76zM139 -479v1329h146v-1329h-146z" />
<glyph unicode="k" horiz-adv-x="862" d="M139 0v1493h146v-956l307 313h194l-362 -363l432 -487h-192l-342 387l-37 -37v-350h-146z" />
<glyph unicode="l" horiz-adv-x="423" d="M139 0v1493h146v-1493h-146z" />
<glyph unicode="m" horiz-adv-x="1392" d="M139 0v850h146v-92q84 113 211 112q158 0 233 -137q78 137 248 137q158 0 229 -114q47 -76 47 -217v-539h-145v516q0 117 -36 169t-118 52q-182 0 -182 -266v-471h-145v504q0 233 -158 233q-47 0 -90 -25.5t-64 -66.5q-31 -61 -30 -182v-463h-146z" />
<glyph unicode="n" horiz-adv-x="960" d="M139 0v850h146v-102q55 68 110.5 95t134.5 27q78 0 143.5 -31.5t100.5 -84.5q47 -76 47 -228v-526h-145v502q0 121 -29 166q-43 70 -151 69q-111 0 -161 -74.5t-50 -238.5v-424h-146z" />
<glyph unicode="o" horiz-adv-x="1067" d="M84 430q0 180 132 309t319 129q188 0 318 -129t130 -317.5t-130 -317.5t-323 -129q-188 0 -317 131t-129 324zM233 426q0 -139 83 -228t214 -89q133 0 218.5 88t85.5 225t-85 225t-217 88q-127 0 -213 -89t-86 -220z" />
<glyph unicode="p" horiz-adv-x="1073" d="M139 -479v1329h146l-2 -121q123 141 295 141q176 0 292.5 -128t116.5 -322q0 -193 -114.5 -319t-290.5 -126t-297 144v-598h-146zM274 420q0 -135 80 -223t205 -88q119 0 199 88t80 219q0 139 -79 230t-200 91q-125 0 -205 -89t-80 -228z" />
<glyph unicode="q" horiz-adv-x="1073" d="M86 420q0 195 115.5 322.5t294.5 127.5q176 0 292 -141v121h146v-1329h-146v598q-123 -143 -296 -144q-176 0 -291 126t-115 319zM236 426q0 -137 78.5 -227t199.5 -90q127 0 206 87t79 224q0 139 -79 228t-204 89q-121 0 -200.5 -89t-79.5 -222z" />
<glyph unicode="r" horiz-adv-x="604" d="M139 0v850h146v-92q57 68 95 90t97 22q63 0 129 -36l-67 -132q-47 29 -86 29q-94 0 -136 -78q-33 -59 -32 -204v-449h-146z" />
<glyph unicode="s" horiz-adv-x="716" d="M72 193l129 53q35 -76 72.5 -106.5t97 -30.5t99.5 38.5t40 96.5q0 47 -28.5 75.5t-108.5 63.5q-147 63 -196.5 113.5t-49.5 134.5q0 102 70.5 169.5t177.5 67.5q156 0 233 -153l-121 -64q-45 84 -118 84q-41 0 -72 -27.5t-31 -66.5q0 -37 29 -62.5t108 -58.5 q119 -51 162 -82q94 -70 94 -186.5t-83.5 -196.5t-206.5 -80q-213 1 -297 218z" />
<glyph unicode="t" horiz-adv-x="438" d="M51 715v135h88v307h146v-307h151v-135h-151v-715h-146v715h-88z" />
<glyph unicode="u" horiz-adv-x="952" d="M139 338v512h146v-496q0 -106 26 -157q47 -88 164 -88q121 0 166 88q27 51 27 157v496h145v-512q0 -172 -78 -256q-96 -106 -260 -107q-162 0 -258 107q-78 84 -78 256z" />
<glyph unicode="v" horiz-adv-x="866" d="M16 850h164l254 -571l252 571h164l-416 -907z" />
<glyph unicode="w" horiz-adv-x="1396" d="M16 850h164l252 -576l266 641l265 -641l254 576h163l-422 -909l-262 632l-262 -632z" />
<glyph unicode="x" horiz-adv-x="929" d="M16 0l363 453l-309 397h178l221 -289l223 289h180l-311 -397l352 -453h-176l-268 346l-270 -346h-183z" />
<glyph unicode="y" horiz-adv-x="942" d="M16 850h168l301 -608l275 608h166l-629 -1329h-164l275 559z" />
<glyph unicode="z" horiz-adv-x="942" d="M16 0l617 715h-502v135h793l-613 -715h586v-135h-881z" />
<glyph unicode="{" horiz-adv-x="595" d="M104 510v121q63 16 90 59t27 123v399q0 150 60.5 216.5t197.5 66.5q27 0 53 -2v-127h-18q-88 0 -115.5 -35t-27.5 -143v-383q0 -100 -27 -150.5t-98 -89.5q70 -39 97.5 -92t27.5 -149v-371q0 -119 28.5 -151.5t132.5 -32.5v-127q-18 -2 -38 -2h-17q-137 0 -196.5 69.5 t-59.5 233.5v376q0 88 -27 131.5t-90 59.5z" />
<glyph unicode="|" horiz-adv-x="1024" d="M436 -342v1708h154v-1708h-154z" />
<glyph unicode="}" horiz-adv-x="595" d="M63 -231h19q88 0 115.5 34.5t27.5 143.5v383q0 100 27 150t98 87q-70 39 -97.5 92.5t-27.5 149.5v371q0 121 -28 153q-27 31 -121 31h-13v129q137 0 195 -25q117 -53 117 -276v-377q0 -88 26.5 -131t90.5 -61v-121q-63 -14 -90 -57.5t-27 -122.5v-402q0 -150 -60.5 -215 t-197.5 -65h-54v129z" />
<glyph unicode="~" horiz-adv-x="1366" d="M190 1251q63 131 127 183.5t154 52.5q80 0 229 -70q143 -66 199 -65q57 0 98 30.5t86 108.5l93 -53q-59 -121 -130 -176.5t-165 -55.5q-43 0 -96.5 18.5t-190.5 80.5q-80 37 -133 36q-102 0 -182 -149z" />
<glyph unicode="&#xa1;" horiz-adv-x="567" d="M184 965q0 41 30 70.5t71 29.5t70.5 -29.5t29.5 -72.5q0 -41 -29.5 -70t-70.5 -29t-71 30t-30 71zM211 -319v1087h147v-1087h-147z" />
<glyph unicode="&#xa2;" d="M201 694q0 170 108.5 296t272.5 149v192h118v-190q117 -8 218 -78v-193q-102 121 -218 138v-623q117 18 224 145v-192q-123 -82 -224 -86v-203h-118v205q-164 23 -272.5 147.5t-108.5 292.5zM350 696.5q0 -114.5 64.5 -201.5t167.5 -108v617q-100 -20 -166 -106.5 t-66 -201z" />
<glyph unicode="&#xa3;" d="M109 53q106 170 264 174q57 92 57 172q0 37 -12 84h-230v117h181l-60 117q-55 109 -72.5 164t-17.5 123q0 160 118 270t288 110q174 0 280.5 -109.5t114.5 -295.5l-150 -41q-8 98 -22 147q-23 70 -83 111t-140 41q-109 0 -180.5 -69.5t-71.5 -174.5q0 -53 22.5 -112.5 t87.5 -182.5l52 -98h258v-117h-218q12 -45 13 -80q0 -88 -60 -196l118 -39q56 -18 76.5 -26.5t40 -12.5t38.5 -4q47 0 84 30.5t80 106.5l122 -74q-106 -211 -280 -211q-76 0 -225 54q-139 51 -193 51q-92 0 -164 -109z" />
<glyph unicode="&#xa4;" horiz-adv-x="1366" d="M109 1221l84 86l196 -195q94 63 153.5 85t141.5 22t142.5 -21.5t150.5 -83.5l194 193l84 -86l-192 -193q59 -88 80.5 -150.5t21.5 -140.5q0 -80 -21.5 -139t-80.5 -149l194 -197l-81 -84l-197 194q-147 -104 -293 -104q-78 0 -141.5 22.5t-153.5 79.5l-194 -192l-84 84 l194 192q-106 150 -106 293q0 141 102 289zM340 737q0 -141 101.5 -242.5t242.5 -101.5t242.5 101.5t101.5 243t-100.5 243.5t-239.5 102q-145 0 -246.5 -100.5t-101.5 -245.5z" />
<glyph unicode="&#xa5;" d="M53 1366h176l349 -610l352 610h178l-272 -465h223v-117h-291l-102 -178h393v-117h-406v-489h-153v489h-398v117h385l-100 178h-285v117h217z" />
<glyph unicode="&#xa6;" horiz-adv-x="1024" d="M436 313h154v-655h-154v655zM436 682v684h154v-684h-154z" />
<glyph unicode="&#xa7;" d="M207 569q0 231 205 322q-92 53 -132 118.5t-40 159.5q0 143 103 241.5t255 98.5q94 0 173 -42t120 -111q49 -82 57 -234h-145q-2 106 -33 158q-53 90 -170 90q-96 0 -154.5 -58.5t-58.5 -154.5q0 -90 70 -143q31 -23 56.5 -34t123.5 -46q152 -55 209 -105 q109 -92 108 -258q0 -106 -48 -181t-156 -140q68 -41 94 -70q76 -76 76 -215q0 -154 -98.5 -248t-260.5 -94q-100 0 -180 42t-121 116q-43 72 -49 223h147q8 -115 39 -158q53 -82 168 -82q94 0 149.5 54.5t55.5 150.5q0 113 -88 170q-41 27 -182 82q-139 53 -191 103 q-102 91 -102 245zM358 575q0 -94 64.5 -159.5t157 -65.5t157 65.5t64.5 158t-64.5 158t-156.5 65.5q-90 0 -156 -66t-66 -156z" />
<glyph unicode="&#xa8;" horiz-adv-x="1024" d="M231 1149q0 41 31 70.5t72 29.5t71.5 -29.5t30.5 -72.5q0 -41 -30.5 -72t-71.5 -31q-43 0 -73 31t-30 74zM586 1149q0 41 30.5 70.5t71.5 29.5q43 0 73 -29.5t30 -72.5q0 -41 -31 -72t-72 -31t-71.5 31t-30.5 74z" />
<glyph unicode="&#xa9;" horiz-adv-x="1515" d="M51 688q0 291 209 496t508 205q285 0 489.5 -209t204.5 -496q0 -293 -205.5 -500t-498.5 -207q-295 0 -501 207t-206 504zM166 688q0 -250 172 -423t420 -173q244 0 417 174t173 418q0 240 -173.5 415t-408.5 175q-270 0 -449 -197q-151 -168 -151 -389zM360 674 q0 172 125 297t299 125q82 0 146.5 -27t140.5 -90v-174q-66 78 -88 98q-82 78 -199 78q-123 0 -214 -93t-91 -218q0 -121 91.5 -212t213.5 -91q113 0 199 75q14 10 88 95v-172q-143 -111 -285 -111q-174 0 -300 125t-126 295z" />
<glyph unicode="&#xaa;" horiz-adv-x="733" d="M84 1104q0 115 72.5 191.5t183.5 76.5q106 0 180 -78v66h96v-512h-96v63q-72 -78 -178 -77q-113 0 -185.5 76.5t-72.5 193.5zM182 1108q0 -82 48.5 -135t121.5 -53q78 0 126 51t48 133t-48 132t-126 50q-72 0 -121 -51t-49 -127z" />
<glyph unicode="&#xab;" horiz-adv-x="882" d="M76 436l305 383l96 -74l-244 -309l244 -301l-96 -76zM381 436l305 383l94 -74l-243 -309l243 -301l-94 -76z" />
<glyph unicode="&#xac;" horiz-adv-x="1024" d="M68 403v144h886v-547h-153v403h-733z" />
<glyph unicode="&#xad;" horiz-adv-x="370" d="M0 371v131h371v-131h-371z" />
<glyph unicode="&#xae;" horiz-adv-x="1515" d="M51 688q0 291 209 496t508 205q285 0 489.5 -209t204.5 -496q0 -293 -205.5 -500t-498.5 -207q-295 0 -501 207t-206 504zM166 688q0 -250 172 -423t420 -173q244 0 417 174t173 418q0 240 -173.5 415t-408.5 175q-270 0 -449 -197q-151 -168 -151 -389zM578 1085h139 q131 0 200.5 -59t69.5 -174q0 -92 -49 -149.5t-139 -73.5l250 -363h-144l-211 309v-309h-116v819zM694 735h37q137 0 137 119t-147 119h-27v-238z" />
<glyph unicode="&#xaf;" horiz-adv-x="1024" d="M238 1079v123h550v-123h-550z" />
<glyph unicode="&#xb0;" d="M307 1114q0 113 81 192.5t196 79.5q111 0 190.5 -80.5t79.5 -191.5q0 -113 -80 -193.5t-192 -80.5q-115 0 -195 79.5t-80 194.5zM416 1114q0 -70 48 -118t118 -48q68 0 115.5 48t47.5 118q0 66 -48 115t-113 49q-70 0 -119 -48t-49 -116z" />
<glyph unicode="&#xb1;" d="M98 0v125h965v-125h-965zM98 635v125h420v411h125v-411h420v-125h-420v-399h-125v399h-420z" />
<glyph unicode="&#xb2;" horiz-adv-x="792" d="M84 547l319 350q84 92 115 142.5t31 93.5q0 63 -47 106t-117 43q-92 0 -135 -68q-20 -31 -29 -98h-108q10 98 45 150q78 113 227 112q115 0 192.5 -71.5t77.5 -176.5q0 -68 -35.5 -127t-150.5 -184l-162 -176h346v-96h-569z" />
<glyph unicode="&#xb3;" horiz-adv-x="792" d="M111 768h104q10 -57 31 -82q43 -57 127 -57q68 0 113.5 45t45.5 110q0 96 -79 129q-29 14 -101 17v92q68 0 105 18q63 33 63 113q0 55 -39 92t-100.5 37t-92 -28.5t-44.5 -100.5h-107q14 86 41 129q61 96 203 96q106 0 176 -63.5t70 -159.5q0 -104 -99 -178 q111 -72 111 -197q0 -106 -77 -177t-191 -71q-158 0 -228 117q-24 39 -32 119z" />
<glyph unicode="&#xb4;" horiz-adv-x="1024" d="M424 1049l215 294l152 -67l-277 -279z" />
<glyph unicode="&#xb5;" horiz-adv-x="952" d="M139 -479v1329h146v-518q0 -223 192 -223q117 0 164 88q27 51 27 157v496h145v-512q0 -172 -78 -256q-94 -106 -254 -107q-117 0 -202 64l6 -518h-146z" />
<glyph unicode="&#xb6;" d="M84 1014q0 96 40 176t109 123q90 53 246 53h588l-68 -119h-90v-1450h-129v1450h-217v-1450h-129v875h-31q-141 0 -230 95t-89 247z" />
<glyph unicode="&#xb7;" horiz-adv-x="460" d="M129 438q0 41 29.5 71t70.5 30q43 0 73 -30t30 -71q0 -43 -30 -72.5t-71 -29.5q-43 0 -72.5 29.5t-29.5 72.5z" />
<glyph unicode="&#xb8;" horiz-adv-x="1024" d="M373 -362l172 266l135 -56l-207 -262z" />
<glyph unicode="&#xb9;" horiz-adv-x="792" d="M221 1270l58 96h196v-819h-108v723h-146z" />
<glyph unicode="&#xba;" horiz-adv-x="733" d="M86 1106q0 111 83 188.5t200 77.5q119 0 199.5 -77.5t80.5 -192.5t-82 -193t-202 -78q-117 0 -198 80t-81 195zM184 1106q0 -82 51.5 -135t129.5 -53q82 0 134 52t52 132q0 82 -52.5 134t-131.5 52q-78 0 -130.5 -52t-52.5 -130z" />
<glyph unicode="&#xbb;" horiz-adv-x="882" d="M102 135l244 301l-244 309l97 74l305 -383l-305 -377zM408 135l243 301l-243 309l94 74l305 -383l-305 -377z" />
<glyph unicode="&#xbc;" horiz-adv-x="1761" d="M193 1270l57 96h196v-819h-108v723h-145zM442 20l795 1373l80 -43l-795 -1377zM1044 133l549 746v-650h103v-96h-103v-133h-108v133h-441zM1237 229h248v336z" />
<glyph unicode="&#xbd;" horiz-adv-x="1761" d="M193 1270l57 96h196v-819h-108v723h-145zM442 20l795 1373l80 -43l-795 -1377zM1079 0l320 350q82 92 113.5 143.5t31.5 96.5q0 61 -47 104t-117 43q-92 0 -135 -67q-20 -31 -28 -99h-109q10 96 45 150q78 111 227 110q113 0 192 -70.5t79 -172.5q0 -68 -36 -127.5 t-151 -186.5l-161 -178h346v-96h-570z" />
<glyph unicode="&#xbe;" horiz-adv-x="1761" d="M84 768h104q10 -57 31 -82q43 -57 127 -57q68 0 114 45t46 110q0 96 -80 129q-29 14 -100 17v92q68 0 104 18q63 33 64 113q0 55 -39 92t-100.5 37t-92.5 -28.5t-45 -100.5h-106q14 86 41 129q61 96 202 96q106 0 176 -63.5t70 -159.5q0 -104 -98 -178q111 -72 110 -197 q0 -106 -76.5 -177t-191.5 -71q-158 0 -227 117q-25 39 -33 119zM444 20l795 1373l78 -43l-795 -1377zM1044 133l549 746v-650h103v-96h-103v-133h-108v133h-441zM1237 229h248v336z" />
<glyph unicode="&#xbf;" horiz-adv-x="892" d="M117 -10q0 82 34.5 153.5t92.5 110.5q59 39 213 82q137 39 137 149q0 61 -43 104.5t-102 43.5q-88 0 -127 -76q-14 -33 -21 -100h-147q2 104 41 170q37 66 105.5 104.5t150.5 38.5q125 0 208.5 -85t83.5 -210q0 -102 -58 -168.5t-189 -107.5q-137 -43 -168 -70 q-61 -49 -62 -139q0 -82 52.5 -135.5t132.5 -53.5q78 0 129 50.5t51 128.5q0 35 -13 88h150q10 -61 10 -97q0 -131 -95 -221t-234 -90q-143 0 -237.5 93.5t-94.5 236.5zM346 961q0 43 30 72.5t73 29.5q41 0 70.5 -31t29.5 -71.5t-31 -70.5t-71.5 -30t-70.5 30t-30 71z" />
<glyph unicode="&#xc0;" horiz-adv-x="1269" d="M14 0l629 1432l614 -1432h-167l-162 387h-584l-164 -387h-166zM352 1714l137 92l244 -266l-88 -65zM408 528h460l-227 547z" />
<glyph unicode="&#xc1;" horiz-adv-x="1269" d="M14 0l629 1432l614 -1432h-167l-162 387h-584l-164 -387h-166zM408 528h460l-227 547zM563 1540l244 266l137 -92l-293 -239z" />
<glyph unicode="&#xc2;" horiz-adv-x="1269" d="M14 0l629 1432l614 -1432h-167l-162 387h-584l-164 -387h-166zM348 1561l285 243l289 -243l-109 -84l-180 155l-178 -155zM408 528h460l-227 547z" />
<glyph unicode="&#xc3;" horiz-adv-x="1269" d="M14 0l629 1432l614 -1432h-167l-162 387h-584l-164 -387h-166zM360 1597q74 145 183 146q47 0 131 -43q80 -41 112 -41q49 0 93 88l88 -68q-70 -147 -187 -147q-53 0 -133 43q-82 41 -115 41q-25 0 -41 -17.5t-42 -70.5zM408 528h460l-227 547z" />
<glyph unicode="&#xc4;" horiz-adv-x="1269" d="M14 0l629 1432l614 -1432h-167l-162 387h-584l-164 -387h-166zM346 1636q0 41 31 72t74 31t73.5 -31t30.5 -74t-30.5 -73.5t-73.5 -30.5t-74 30.5t-31 75.5zM408 528h460l-227 547zM735 1636q0 41 31 72t74 31t73.5 -31t30.5 -74t-30.5 -73.5t-73.5 -30.5t-74 30.5 t-31 75.5z" />
<glyph unicode="&#xc5;" horiz-adv-x="1269" d="M14 0l629 1432l614 -1432h-167l-162 387h-584l-164 -387h-166zM408 528h460l-227 547zM463 1653q0 74 54 128t130 54t131.5 -54.5t55.5 -130t-54.5 -131t-130.5 -55.5q-78 0 -132 55.5t-54 133.5zM563 1651q0 -35 25.5 -60.5t60.5 -25.5t59.5 25.5t24.5 60.5 q0 33 -24.5 58.5t-59.5 25.5t-60.5 -24.5t-25.5 -59.5z" />
<glyph unicode="&#xc6;" horiz-adv-x="1839" d="M27 0l608 1366h600l59 -141h-551l170 -410h539l61 -141h-538l221 -533h555l61 -141h-714l-160 383h-582l-161 -383h-168zM422 524h457l-228 539z" />
<glyph unicode="&#xc7;" horiz-adv-x="1323" d="M102 678q0 293 210 502t505 209q209 0 404 -136v-188q-193 180 -414 180q-225 0 -388 -168t-163 -401q0 -229 163 -393t390 -164q219 0 412 178v-188q-195 -133 -412 -134q-289 0 -498 207t-209 496zM551 -375l182 279l148 -66l-226 -266z" />
<glyph unicode="&#xc8;" horiz-adv-x="987" d="M178 0v1366h707v-141h-553v-408h538v-141h-538v-535h553v-141h-707zM246 1714l137 92l244 -266l-88 -65z" />
<glyph unicode="&#xc9;" horiz-adv-x="987" d="M178 0v1366h707v-141h-553v-408h538v-141h-538v-535h553v-141h-707zM442 1540l244 266l137 -92l-293 -239z" />
<glyph unicode="&#xca;" horiz-adv-x="987" d="M178 0v1366h707v-141h-553v-408h538v-141h-538v-535h553v-141h-707zM252 1561l285 243l288 -243l-108 -84l-180 155l-179 -155z" />
<glyph unicode="&#xcb;" horiz-adv-x="987" d="M178 0v1366h707v-141h-553v-408h538v-141h-538v-535h553v-141h-707zM246 1636q0 41 30.5 72t73.5 31t74 -31t31 -74t-31 -73.5t-74 -30.5t-73.5 30.5t-30.5 75.5zM635 1636q0 41 30.5 72t73.5 31t74 -31t31 -74t-31 -73.5t-74 -30.5t-73.5 30.5t-30.5 75.5z" />
<glyph unicode="&#xcc;" horiz-adv-x="507" d="M4 1714l137 92l197 -272l-88 -59zM176 0v1366h154v-1366h-154z" />
<glyph unicode="&#xcd;" horiz-adv-x="507" d="M178 0v1366h154v-1366h-154zM190 1534l197 272l137 -92l-245 -239z" />
<glyph unicode="&#xce;" horiz-adv-x="507" d="M2 1561l252 243l252 -243l-100 -84l-152 155l-154 -155zM178 0v1366h154v-1366h-154z" />
<glyph unicode="&#xcf;" horiz-adv-x="507" d="M18 1636q0 41 31 72t74 31t73.5 -31t30.5 -74t-30.5 -73.5t-73.5 -30.5t-74 30.5t-31 75.5zM178 0v1366h154v-1366h-154zM295 1636q0 41 30.5 72t73.5 31t74 -31t31 -74t-31 -73.5t-74 -30.5t-73.5 30.5t-30.5 75.5z" />
<glyph unicode="&#xd0;" horiz-adv-x="1296" d="M43 668v137h137v561h279q313 0 499 -158q236 -195 236 -526q0 -328 -240 -524q-102 -84 -216.5 -121t-280.5 -37h-277v668h-137zM334 141h131q240 0 389 125q186 158 186 416q0 262 -184 418q-150 125 -391 125h-131v-420h325v-137h-325v-527z" />
<glyph unicode="&#xd1;" horiz-adv-x="1570" d="M178 0v1423l1063 -1116v1059h154v-1427l-1063 1114v-1053h-154zM524 1597q74 145 183 146q47 0 131 -43q80 -41 112 -41q49 0 92 88l88 -68q-70 -147 -186 -147q-53 0 -133 43q-82 41 -115 41q-25 0 -41 -17.5t-43 -70.5z" />
<glyph unicode="&#xd2;" horiz-adv-x="1626" d="M102 690q0 283 212 491t501 208q291 0 500 -208t209 -499q0 -293 -210 -500t-507 -207q-145 0 -285.5 63.5t-242.5 176.5q-177 199 -177 475zM256 690q0 -252 174 -416q166 -156 379 -155q233 0 397 163.5t164 399.5q0 233 -163 398t-394 165q-229 0 -393 -164t-164 -391 zM516 1714l137 92l244 -266l-88 -65z" />
<glyph unicode="&#xd3;" horiz-adv-x="1626" d="M102 690q0 283 212 491t501 208q291 0 500 -208t209 -499q0 -293 -210 -500t-507 -207q-145 0 -285.5 63.5t-242.5 176.5q-177 199 -177 475zM256 690q0 -252 174 -416q166 -156 379 -155q233 0 397 163.5t164 399.5q0 233 -163 398t-394 165q-229 0 -393 -164t-164 -391 zM748 1540l243 266l137 -92l-292 -239z" />
<glyph unicode="&#xd4;" horiz-adv-x="1626" d="M102 690q0 283 212 491t501 208q291 0 500 -208t209 -499q0 -293 -210 -500t-507 -207q-145 0 -285.5 63.5t-242.5 176.5q-177 199 -177 475zM256 690q0 -252 174 -416q166 -156 379 -155q233 0 397 163.5t164 399.5q0 233 -163 398t-394 165q-229 0 -393 -164t-164 -391 zM526 1561l285 243l289 -243l-109 -84l-180 155l-178 -155z" />
<glyph unicode="&#xd5;" horiz-adv-x="1626" d="M102 690q0 283 212 491t501 208q291 0 500 -208t209 -499q0 -293 -210 -500t-507 -207q-145 0 -285.5 63.5t-242.5 176.5q-177 199 -177 475zM256 690q0 -252 174 -416q166 -156 379 -155q233 0 397 163.5t164 399.5q0 233 -163 398t-394 165q-229 0 -393 -164t-164 -391 zM551 1597q72 145 182 146q47 0 131 -43q80 -41 113 -41q49 0 92 88l88 -68q-70 -147 -186 -147q-53 0 -133 43q-82 41 -115 41q-25 0 -41 -17.5t-43 -70.5z" />
<glyph unicode="&#xd6;" horiz-adv-x="1626" d="M102 690q0 283 212 491t501 208q291 0 500 -208t209 -499q0 -293 -210 -500t-507 -207q-145 0 -285.5 63.5t-242.5 176.5q-177 199 -177 475zM256 690q0 -252 174 -416q166 -156 379 -155q233 0 397 163.5t164 399.5q0 233 -163 398t-394 165q-229 0 -393 -164t-164 -391 zM520 1636q0 41 31 72t74 31t73.5 -31t30.5 -74t-30.5 -73.5t-73.5 -30.5t-74 30.5t-31 75.5zM909 1636q0 41 31 72t74 31t73.5 -31t30.5 -74t-30.5 -73.5t-73.5 -30.5t-74 30.5t-31 75.5z" />
<glyph unicode="&#xd7;" d="M178 379l318 317l-318 318l86 86l318 -318l317 318l86 -86l-317 -318l317 -317l-86 -86l-317 317l-318 -317z" />
<glyph unicode="&#xd8;" horiz-adv-x="1626" d="M100 76l160 157q-86 119 -122 220.5t-36 226.5q0 291 210 500t503 209q229 0 447 -158l157 158l88 -91l-153 -155q94 -125 132 -227.5t38 -233.5q0 -291 -209 -499t-502 -208q-240 0 -463 168l-157 -157zM256 680q0 -94 24.5 -169t88.5 -171l784 788q-150 117 -340 117 q-231 0 -394 -164.5t-163 -400.5zM459 252q66 -59 163 -96t195 -37q227 0 390 165t163 396q0 188 -123 358z" />
<glyph unicode="&#xd9;" horiz-adv-x="1329" d="M178 487v879h154v-838q0 -184 45 -262q41 -66 121 -106.5t166 -40.5q88 0 167.5 41t120.5 106q45 78 45 262v838h154v-879q0 -209 -90 -323q-68 -88 -173.5 -138.5t-222 -50.5t-224 50.5t-173.5 138.5q-90 114 -90 323zM389 1714l137 92l244 -266l-88 -65z" />
<glyph unicode="&#xda;" horiz-adv-x="1329" d="M178 487v879h154v-838q0 -184 45 -262q41 -66 121 -106.5t166 -40.5q88 0 167.5 41t120.5 106q45 78 45 262v838h154v-879q0 -209 -90 -323q-68 -88 -173.5 -138.5t-222 -50.5t-224 50.5t-173.5 138.5q-90 114 -90 323zM586 1540l243 266l138 -92l-293 -239z" />
<glyph unicode="&#xdb;" horiz-adv-x="1329" d="M178 487v879h154v-838q0 -184 45 -262q41 -66 121 -106.5t166 -40.5q88 0 167.5 41t120.5 106q45 78 45 262v838h154v-879q0 -209 -90 -323q-68 -88 -173.5 -138.5t-222 -50.5t-224 50.5t-173.5 138.5q-90 114 -90 323zM391 1561l285 243l289 -243l-109 -84l-180 155 l-178 -155z" />
<glyph unicode="&#xdc;" horiz-adv-x="1329" d="M178 487v879h154v-838q0 -184 45 -262q41 -66 121 -106.5t166 -40.5q88 0 167.5 41t120.5 106q45 78 45 262v838h154v-879q0 -209 -90 -323q-68 -88 -173.5 -138.5t-222 -50.5t-224 50.5t-173.5 138.5q-90 114 -90 323zM379 1636q0 41 30.5 72t73.5 31t74 -31t31 -74 t-31 -73.5t-74 -30.5t-73.5 30.5t-30.5 75.5zM768 1636q0 41 30.5 72t73.5 31t74 -31t31 -74t-31 -73.5t-74 -30.5t-73.5 30.5t-30.5 75.5z" />
<glyph unicode="&#xdd;" horiz-adv-x="1081" d="M14 1366h176l349 -610l352 610h178l-455 -778v-588h-153v588zM463 1540l244 266l137 -92l-293 -239z" />
<glyph unicode="&#xde;" horiz-adv-x="935" d="M178 0v1366h154v-192h94q236 0 344 -95q127 -106 127 -288q0 -172 -113 -279q-111 -104 -319 -104h-133v-408h-154zM332 547h123q139 0 216 63.5t77 180.5q0 115 -76 180q-74 61 -228 61h-112v-485z" />
<glyph unicode="&#xdf;" horiz-adv-x="1073" d="M59 715v135h80v283q0 174 78 268q45 53 120 85t159 32q152 0 252 -97.5t100 -244.5q0 -182 -152 -265q133 -51 212 -168.5t79 -269.5q0 -123 -61.5 -231.5t-173.5 -180.5q-121 -78 -283 -86v144q131 8 223 74q145 106 146 286q0 90 -42 169t-114 120q-76 45 -213 63v132 q96 6 145 43q84 61 84 176q0 88 -58 145t-148 57q-59 0 -108.5 -27.5t-72.5 -74.5q-27 -59 -26 -215v-1067h-146v715h-80z" />
<glyph unicode="&#xe0;" horiz-adv-x="1073" d="M86 428q0 193 114.5 317.5t291 124.5t296.5 -141v121h146v-850h-146v119q-119 -143 -292 -144q-176 0 -293 128t-117 325zM236 430q0 -139 78.5 -230t199.5 -91q125 0 205 89t80 228q0 137 -79 224t-204 87q-119 0 -199.5 -88t-80.5 -219zM256 1276l152 67l215 -294 l-91 -52z" />
<glyph unicode="&#xe1;" horiz-adv-x="1073" d="M86 428q0 193 114.5 317.5t291 124.5t296.5 -141v121h146v-850h-146v119q-119 -143 -292 -144q-176 0 -293 128t-117 325zM236 430q0 -139 78.5 -230t199.5 -91q125 0 205 89t80 228q0 137 -79 224t-204 87q-119 0 -199.5 -88t-80.5 -219zM461 1049l215 294l151 -67 l-276 -279z" />
<glyph unicode="&#xe2;" horiz-adv-x="1073" d="M86 428q0 193 114.5 317.5t291 124.5t296.5 -141v121h146v-850h-146v119q-119 -143 -292 -144q-176 0 -293 128t-117 325zM231 1077l283 266l285 -266l-107 -80l-178 170l-180 -170zM236 430q0 -139 78.5 -230t199.5 -91q125 0 205 89t80 228q0 137 -79 224t-204 87 q-119 0 -199.5 -88t-80.5 -219z" />
<glyph unicode="&#xe3;" horiz-adv-x="1073" d="M86 428q0 193 114.5 317.5t291 124.5t296.5 -141v121h146v-850h-146v119q-119 -143 -292 -144q-176 0 -293 128t-117 325zM236 430q0 -139 78.5 -230t199.5 -91q125 0 205 89t80 228q0 137 -79 224t-204 87q-119 0 -199.5 -88t-80.5 -219zM281 1106q25 70 70.5 107.5 t105.5 37.5q55 0 127 -43q68 -41 94 -41q29 0 50.5 19.5t45.5 68.5l86 -65q-29 -70 -76 -110t-104 -40q-45 0 -117 43q-78 43 -110 43q-59 0 -86 -90z" />
<glyph unicode="&#xe4;" horiz-adv-x="1073" d="M86 428q0 193 114.5 317.5t291 124.5t296.5 -141v121h146v-850h-146v119q-119 -143 -292 -144q-176 0 -293 128t-117 325zM236 430q0 -139 78.5 -230t199.5 -91q125 0 205 89t80 228q0 137 -79 224t-204 87q-119 0 -199.5 -88t-80.5 -219zM272 1149q0 41 31 70.5t72 29.5 t71.5 -29.5t30.5 -72.5q0 -41 -30.5 -72t-71.5 -31q-43 0 -73 31t-30 74zM627 1149q0 41 30.5 70.5t71.5 29.5q43 0 72.5 -29.5t29.5 -72.5q0 -41 -30.5 -72t-71.5 -31t-71.5 31t-30.5 74z" />
<glyph unicode="&#xe5;" horiz-adv-x="1073" d="M86 428q0 193 114.5 317.5t291 124.5t296.5 -141v121h146v-850h-146v119q-119 -143 -292 -144q-176 0 -293 128t-117 325zM236 430q0 -139 78.5 -230t199.5 -91q125 0 205 89t80 228q0 137 -79 224t-204 87q-119 0 -199.5 -88t-80.5 -219zM371 1180q0 74 54 128t130 54 t131 -54.5t55 -130t-54 -131t-130 -55.5q-78 0 -132 55.5t-54 133.5zM471 1177.5q0 -34.5 25.5 -60t60.5 -25.5t59.5 25.5t24.5 60t-25.5 59.5t-58.5 25q-35 0 -60.5 -25t-25.5 -59.5z" />
<glyph unicode="&#xe6;" horiz-adv-x="1581" d="M84 250q0 129 109 215q88 70 241 70q78 0 129 -15.5t117 -58.5q-2 143 -60.5 210.5t-181.5 67.5q-102 0 -262 -51v135q170 47 273 47q111 0 193.5 -45t119.5 -127q47 80 136 126t192 46q119 0 216 -60t144 -163q45 -96 45 -239v-13h-666q10 -129 84 -207.5t187 -78.5 q158 0 262 178l123 -72q-76 -125 -167 -182.5t-218 -57.5q-219 0 -332 170q-53 -90 -129 -130t-190 -40q-164 0 -264.5 76t-100.5 199zM227 256q0 -66 59.5 -106.5t157.5 -40.5q100 0 164 43t64 108q0 61 -62.5 101t-158.5 40q-98 0 -161 -41t-63 -104zM842 520h497 q-18 102 -84.5 160.5t-162.5 58.5q-201 0 -250 -219z" />
<glyph unicode="&#xe7;" horiz-adv-x="890" d="M84 419.5q0 188.5 130 318.5t323 130q141 0 264 -80v-192q-70 76 -130.5 107.5t-138.5 31.5q-127 0 -213 -90t-86 -223t85 -223t212 -90q80 0 142.5 32.5t134.5 114.5v-193q-141 -88 -272 -88q-190 0 -320.5 128t-130.5 316.5zM299 -362l172 266l135 -56l-207 -262z" />
<glyph unicode="&#xe8;" horiz-adv-x="985" d="M84 420q0 199 114.5 323.5t297 124.5t294 -122.5t111.5 -325.5v-25h-663q6 -131 80.5 -208.5t189.5 -77.5q84 0 142.5 39.5t119.5 138.5l123 -70q-137 -242 -391 -242q-184 0 -301 124t-117 321zM227 1276l152 67l215 -294l-90 -52zM248 518h500q-20 100 -88 159.5 t-162 59.5q-92 0 -163 -61.5t-87 -157.5z" />
<glyph unicode="&#xe9;" horiz-adv-x="985" d="M84 420q0 199 114.5 323.5t297 124.5t294 -122.5t111.5 -325.5v-25h-663q6 -131 80.5 -208.5t189.5 -77.5q84 0 142.5 39.5t119.5 138.5l123 -70q-137 -242 -391 -242q-184 0 -301 124t-117 321zM248 518h500q-20 100 -88 159.5t-162 59.5q-92 0 -163 -61.5t-87 -157.5z M438 1049l215 294l152 -67l-277 -279z" />
<glyph unicode="&#xea;" horiz-adv-x="985" d="M84 420q0 199 114.5 323.5t297 124.5t294 -122.5t111.5 -325.5v-25h-663q6 -131 80.5 -208.5t189.5 -77.5q84 0 142.5 39.5t119.5 138.5l123 -70q-137 -242 -391 -242q-184 0 -301 124t-117 321zM223 1077l283 266l285 -266l-107 -80l-178 170l-180 -170zM248 518h500 q-20 100 -88 159.5t-162 59.5q-92 0 -163 -61.5t-87 -157.5z" />
<glyph unicode="&#xeb;" horiz-adv-x="985" d="M84 420q0 199 114.5 323.5t297 124.5t294 -122.5t111.5 -325.5v-25h-663q6 -131 80.5 -208.5t189.5 -77.5q84 0 142.5 39.5t119.5 138.5l123 -70q-137 -242 -391 -242q-184 0 -301 124t-117 321zM240 1149q0 41 30.5 70.5t71.5 29.5t71.5 -29.5t30.5 -72.5 q0 -41 -30.5 -72t-71.5 -31q-43 0 -72.5 31t-29.5 74zM248 518h500q-20 100 -88 159.5t-162 59.5q-92 0 -163 -61.5t-87 -157.5zM594 1149q0 41 30.5 70.5t71.5 29.5q43 0 73 -29.5t30 -72.5q0 -41 -31 -72t-72 -31t-71.5 31t-30.5 74z" />
<glyph unicode="&#xec;" horiz-adv-x="425" d="M-33 1276l152 67l174 -294l-84 -52zM139 0v850h146v-850h-146z" />
<glyph unicode="&#xed;" horiz-adv-x="425" d="M139 0v850h146v-850h-146zM158 1049l176 294l151 -67l-243 -279z" />
<glyph unicode="&#xee;" horiz-adv-x="425" d="M-31 1077l242 266l244 -266l-99 -80l-145 170l-145 -170zM139 0v850h146v-850h-146z" />
<glyph unicode="&#xef;" horiz-adv-x="425" d="M-10 1149q0 39 29.5 67.5t68.5 28.5t68.5 -28.5t29.5 -69.5t-29.5 -69.5t-68.5 -28.5q-41 0 -69.5 29.5t-28.5 70.5zM141 0v850h146v-850h-146zM254 1149q0 39 29.5 67.5t68.5 28.5q41 0 70 -28.5t29 -69.5t-29 -69.5t-70 -28.5t-69.5 29.5t-28.5 70.5z" />
<glyph unicode="&#xf0;" horiz-adv-x="1067" d="M84 422q0 188 131 318t324 130q90 0 148 -27.5t122 -101.5q-27 125 -111 263.5t-180 218.5l-219 -115l-92 84l203 104q-104 68 -256 113l59 88q174 -45 322 -135l225 113l86 -82l-211 -109q164 -152 256 -371t92 -460q0 -211 -124 -344.5t-322 -133.5q-193 0 -323 128.5 t-130 318.5zM233 428q0 -139 84 -229t213 -90q133 0 219.5 88t86.5 225t-85 226t-219 89q-127 0 -213 -89t-86 -220z" />
<glyph unicode="&#xf1;" horiz-adv-x="960" d="M139 0v850h146v-102q55 68 110.5 95t134.5 27q78 0 143.5 -31.5t100.5 -84.5q47 -76 47 -228v-526h-145v502q0 121 -29 166q-43 70 -151 69q-111 0 -161 -74.5t-50 -238.5v-424h-146zM211 1106q25 70 71 107.5t105 37.5q55 0 127 -43q68 -41 94 -41q29 0 50.5 19.5 t46.5 68.5l86 -65q-29 -70 -76 -110t-105 -40q-45 0 -116 43q-78 43 -111 43q-59 0 -86 -90z" />
<glyph unicode="&#xf2;" horiz-adv-x="1067" d="M84 430q0 180 132 309t319 129q188 0 318 -129t130 -317.5t-130 -317.5t-323 -129q-188 0 -317 131t-129 324zM233 426q0 -139 83 -228t214 -89q133 0 218.5 88t85.5 225t-85 225t-217 88q-127 0 -213 -89t-86 -220zM254 1276l152 67l215 -294l-91 -52z" />
<glyph unicode="&#xf3;" horiz-adv-x="1067" d="M84 430q0 180 132 309t319 129q188 0 318 -129t130 -317.5t-130 -317.5t-323 -129q-188 0 -317 131t-129 324zM233 426q0 -139 83 -228t214 -89q133 0 218.5 88t85.5 225t-85 225t-217 88q-127 0 -213 -89t-86 -220zM465 1049l215 294l151 -67l-276 -279z" />
<glyph unicode="&#xf4;" horiz-adv-x="1067" d="M84 430q0 180 132 309t319 129q188 0 318 -129t130 -317.5t-130 -317.5t-323 -129q-188 0 -317 131t-129 324zM233 426q0 -139 83 -228t214 -89q133 0 218.5 88t85.5 225t-85 225t-217 88q-127 0 -213 -89t-86 -220zM250 1077l282 266l285 -266l-106 -80l-179 170 l-180 -170z" />
<glyph unicode="&#xf5;" horiz-adv-x="1067" d="M84 430q0 180 132 309t319 129q188 0 318 -129t130 -317.5t-130 -317.5t-323 -129q-188 0 -317 131t-129 324zM233 426q0 -139 83 -228t214 -89q133 0 218.5 88t85.5 225t-85 225t-217 88q-127 0 -213 -89t-86 -220zM281 1106q25 70 70.5 107.5t105.5 37.5q55 0 127 -43 q68 -41 94 -41q29 0 50.5 19.5t45.5 68.5l86 -65q-29 -70 -76 -110t-104 -40q-45 0 -117 43q-78 43 -110 43q-59 0 -86 -90z" />
<glyph unicode="&#xf6;" horiz-adv-x="1067" d="M84 430q0 180 132 309t319 129q188 0 318 -129t130 -317.5t-130 -317.5t-323 -129q-188 0 -317 131t-129 324zM233 426q0 -139 83 -228t214 -89q133 0 218.5 88t85.5 225t-85 225t-217 88q-127 0 -213 -89t-86 -220zM260 1149q0 41 31 70.5t71.5 29.5t71.5 -29.5 t31 -72.5q0 -41 -31 -72t-72 -31q-43 0 -72.5 31t-29.5 74zM614 1149q0 41 31 70.5t72 29.5q43 0 72.5 -29.5t29.5 -72.5q0 -41 -30.5 -72t-71.5 -31t-72 31t-31 74z" />
<glyph unicode="&#xf7;" d="M98 635v125h965v-125h-965zM485 430q0 39 29 66.5t68 27.5q41 0 68.5 -28.5t27.5 -67.5t-27.5 -67.5t-68.5 -28.5t-69 28.5t-28 69.5zM485 967q0 39 29 66.5t68 27.5q41 0 68.5 -28.5t27.5 -67.5t-27.5 -68t-68.5 -29t-69 29t-28 70z" />
<glyph unicode="&#xf8;" horiz-adv-x="1067" d="M53 31l121 121q-90 121 -90 272q0 186 131 315t320 129q152 0 270 -90l121 123l82 -82l-121 -121q41 -41 68.5 -118.5t27.5 -159.5q0 -184 -130 -314.5t-316 -130.5q-145 0 -279 93l-123 -121zM233 418q0 -96 46 -166l423 430q-68 53 -170 53q-131 0 -215 -89t-84 -228z M356 164q68 -55 176 -55q131 0 216.5 89t85.5 224q0 104 -50 180z" />
<glyph unicode="&#xf9;" horiz-adv-x="952" d="M139 338v512h146v-496q0 -106 26 -157q47 -88 164 -88q121 0 166 88q27 51 27 157v496h145v-512q0 -172 -78 -256q-96 -106 -260 -107q-162 0 -258 107q-78 84 -78 256zM197 1276l151 67l215 -294l-90 -52z" />
<glyph unicode="&#xfa;" horiz-adv-x="952" d="M139 338v512h146v-496q0 -106 26 -157q47 -88 164 -88q121 0 166 88q27 51 27 157v496h145v-512q0 -172 -78 -256q-96 -106 -260 -107q-162 0 -258 107q-78 84 -78 256zM410 1049l215 294l151 -67l-276 -279z" />
<glyph unicode="&#xfb;" horiz-adv-x="952" d="M139 338v512h146v-496q0 -106 26 -157q47 -88 164 -88q121 0 166 88q27 51 27 157v496h145v-512q0 -172 -78 -256q-96 -106 -260 -107q-162 0 -258 107q-78 84 -78 256zM207 1077l282 266l285 -266l-106 -80l-179 170l-180 -170z" />
<glyph unicode="&#xfc;" horiz-adv-x="952" d="M139 338v512h146v-496q0 -106 26 -157q47 -88 164 -88q121 0 166 88q27 51 27 157v496h145v-512q0 -172 -78 -256q-96 -106 -260 -107q-162 0 -258 107q-78 84 -78 256zM211 1149q0 41 30.5 70.5t71.5 29.5t72 -29.5t31 -72.5q0 -41 -31 -72t-72 -31q-43 0 -72.5 31 t-29.5 74zM565 1149q0 41 31 70.5t72 29.5q43 0 72.5 -29.5t29.5 -72.5q0 -41 -30.5 -72t-71.5 -31t-72 31t-31 74z" />
<glyph unicode="&#xfd;" horiz-adv-x="942" d="M16 850h168l301 -608l275 608h166l-629 -1329h-164l275 559zM410 1049l215 294l151 -67l-276 -279z" />
<glyph unicode="&#xfe;" horiz-adv-x="1073" d="M139 -479v1972h146v-764q119 139 293 139q176 0 292.5 -128t116.5 -322q0 -190 -115.5 -316.5t-289.5 -126.5t-297 144v-598h-146zM276 420q0 -137 79 -224t204 -87q119 0 199 88t80 217q0 139 -79 230t-200 91q-125 0 -204 -88t-79 -227z" />
<glyph unicode="&#xff;" horiz-adv-x="942" d="M16 850h168l301 -608l275 608h166l-629 -1329h-164l275 559zM211 1149q0 41 30.5 70.5t71.5 29.5t72 -29.5t31 -72.5q0 -41 -31 -72t-72 -31q-43 0 -72.5 31t-29.5 74zM565 1149q0 41 31 70.5t72 29.5q43 0 72.5 -29.5t29.5 -72.5q0 -41 -30.5 -72t-71.5 -31t-72 31 t-31 74z" />
<glyph unicode="&#x152;" horiz-adv-x="2162" d="M102 680q0 293 208 501t501 208q336 0 551 -291v268h698v-141h-544v-408h530v-141h-530v-535h544v-141h-698v262q-207 -287 -545 -287q-293 0 -504 208t-211 497zM256 690q0 -236 161 -403.5t386 -167.5q231 0 395 165t164 396t-163 398t-390 167q-223 0 -388 -166 t-165 -389z" />
<glyph unicode="&#x153;" horiz-adv-x="1742" d="M84 420q0 186 132 317t321 131q117 0 215 -53t151 -147q47 94 139.5 147t204.5 53q186 0 298 -120.5t112 -321.5v-29h-670q6 -127 83 -207.5t196 -80.5q160 0 256 180l123 -72q-137 -242 -390 -242q-115 0 -211 55.5t-141 147.5q-59 -96 -158.5 -149.5t-216.5 -53.5 q-184 0 -314 130.5t-130 314.5zM233 426q0 -139 83 -228t212 -89q133 0 218 87t85 224q0 139 -83.5 228t-217.5 89q-127 0 -212 -89t-85 -222zM999 520h504q-23 102 -87 158.5t-165 56.5q-201 0 -252 -215z" />
<glyph unicode="&#x178;" horiz-adv-x="1081" d="M14 1366h176l349 -610l352 610h178l-455 -778v-588h-153v588zM250 1636q0 41 30.5 72t73.5 31t74 -31t31 -74t-31 -73.5t-74 -30.5t-73.5 30.5t-30.5 75.5zM639 1636q0 41 30.5 72t73.5 31t74 -31t31 -74t-31 -73.5t-74 -30.5t-73.5 30.5t-30.5 75.5z" />
<glyph unicode="&#x2c6;" horiz-adv-x="1024" d="M229 1077l283 266l285 -266l-107 -80l-178 170l-180 -170z" />
<glyph unicode="&#x2dc;" horiz-adv-x="1024" d="M223 1106q25 70 71 107.5t105 37.5q55 0 127 -43q68 -41 95 -41q29 0 50 19.5t46 68.5l86 -65q-29 -70 -76 -110t-104 -40q-45 0 -117 43q-78 43 -111 43q-59 0 -86 -90z" />
<glyph unicode="&#x2013;" d="M240 371v131h682v-131h-682z" />
<glyph unicode="&#x2014;" horiz-adv-x="1114" d="M0 371v131h1114v-131h-1114z" />
<glyph unicode="&#x2018;" horiz-adv-x="534" d="M117 973l205 461l98 -39l-170 -471z" />
<glyph unicode="&#x2019;" horiz-adv-x="516" d="M94 963l170 471l133 -50l-204 -460z" />
<glyph unicode="&#x201a;" horiz-adv-x="516" d="M94 -266l170 471l133 -49l-204 -461z" />
<glyph unicode="&#x201c;" horiz-adv-x="835" d="M117 973l205 461l98 -39l-170 -471zM416 973l207 461l98 -39l-170 -471z" />
<glyph unicode="&#x201d;" horiz-adv-x="835" d="M117 963l170 471l133 -50l-205 -460zM416 963l170 471l135 -50l-207 -460z" />
<glyph unicode="&#x201e;" horiz-adv-x="835" d="M117 -272l170 473l133 -49l-205 -463zM416 -272l170 473l135 -49l-207 -463z" />
<glyph unicode="&#x2022;" horiz-adv-x="1366" d="M401 692q0 119 84 202t205 83q113 0 196 -84t83 -199q0 -119 -83 -201.5t-200 -82.5t-201 83.5t-84 198.5z" />
<glyph unicode="&#x2026;" horiz-adv-x="1527" d="M154 82q0 39 29.5 68.5t70.5 29.5t70.5 -29.5t29.5 -70.5t-29.5 -70.5t-70.5 -29.5t-70.5 29.5t-29.5 72.5zM664 82q0 39 29.5 68.5t70.5 29.5t70.5 -29.5t29.5 -70.5t-29.5 -70.5t-70.5 -29.5t-70.5 29.5t-29.5 72.5zM1171 82q0 39 30 68.5t71 29.5t70.5 -29.5 t29.5 -70.5t-29.5 -70.5t-70.5 -29.5t-71 29.5t-30 72.5z" />
<glyph unicode="&#x2039;" horiz-adv-x="577" d="M76 436l305 383l96 -74l-244 -309l244 -301l-96 -76z" />
<glyph unicode="&#x203a;" horiz-adv-x="577" d="M102 135l244 301l-244 309l97 74l305 -383l-307 -377z" />
<glyph unicode="&#x20ac;" horiz-adv-x="1556" d="M92 723l49 119h121q57 240 253 393.5t441 153.5q297 0 508 -218l-65 -149q-170 223 -443 223q-186 0 -334.5 -111.5t-199.5 -291.5h899l-51 -117l-871 -2q-2 -23 -2 -43q0 -10 2 -31h840l-49 -119h-772q47 -178 199.5 -294.5t336.5 -116.5q129 0 247 59.5t200 165.5v-211 q-199 -158 -449 -158q-248 0 -446.5 160t-245.5 395h-168l49 119h105q-2 23 -2 33q0 23 2 41h-154z" />
<glyph unicode="&#x2122;" horiz-adv-x="1476" d="M8 1274v92h471v-92h-188v-686h-98v686h-185zM553 588l133 829l293 -647l301 647l125 -829h-96l-70 528l-260 -567l-256 567l-76 -528h-94z" />
<glyph unicode="&#xe000;" horiz-adv-x="850" d="M0 850h850v-850h-850v850z" />
<glyph unicode="&#xfb01;" horiz-adv-x="915" d="M59 715v135h80v362q0 152 49 215q72 90 205 91q45 0 107 -19v-147q-57 20 -99 20q-70 0 -93 -40t-23 -154v-328h215v-135h-215v-715h-146v715h-80zM598 1174q0 41 30.5 71.5t73.5 30.5t74 -31t31 -74t-31 -73.5t-74 -30.5t-73.5 31t-30.5 76zM631 0v850h145v-850h-145z " />
<glyph unicode="&#xfb02;" horiz-adv-x="915" d="M59 715v135h80v362q0 152 49 215q72 90 205 91q45 0 107 -19v-147q-57 20 -99 20q-70 0 -93 -40t-23 -154v-328h215v-135h-215v-715h-146v715h-80zM631 0v1493h145v-1493h-145z" />
<glyph unicode="&#xfb03;" horiz-adv-x="1403" d="M1087 1174q0 41 30.5 71.5t73.5 30.5t73.5 -31t30.5 -74t-30.5 -73.5t-73.5 -30.5t-73.5 31t-30.5 76zM1117 0v850h146v-850h-146zM548 715v135h80v362q0 152 49 215q72 90 205 91q45 0 107 -19v-147q-57 20 -99 20q-70 0 -93 -40t-23 -154v-328h215v-135h-215v-715h-146 v715h-80zM59 715v135h80v362q0 152 49 215q72 90 205 91q45 0 107 -19v-147q-57 20 -99 20q-70 0 -93 -40t-23 -154v-328h215v-135h-215v-715h-146v715h-80z" />
<glyph unicode="&#xfb04;" horiz-adv-x="1401" d="M1117 0v1493h146v-1493h-146zM548 715v135h80v362q0 152 49 215q72 90 205 91q45 0 107 -19v-147q-57 20 -99 20q-70 0 -93 -40t-23 -154v-328h215v-135h-215v-715h-146v715h-80zM59 715v135h80v362q0 152 49 215q72 90 205 91q45 0 107 -19v-147q-57 20 -99 20 q-70 0 -93 -40t-23 -154v-328h215v-135h-215v-715h-146v715h-80z" />
</font>
</defs>
</svg>
